<svg width="18" height="18" viewBox="0 0 18 18" fill="none" xmlns="http://www.w3.org/2000/svg">
<path d="M16.3036 1.69634C14.0418 -0.56547 10.3618 -0.565435 8.09995 1.69638C6.555 3.24132 6.01837 5.51807 6.68733 7.58367L0.154512 14.1165C0.0556173 14.2154 0 14.3493 0 14.4894V17.4727C0 17.7641 0.235864 18 0.527345 18H3.51064C3.6507 18 3.78461 17.9444 3.88347 17.8455L4.62917 17.0993C4.74297 16.9855 4.79859 16.8258 4.78006 16.6656L4.68736 15.8643L5.79766 15.7598C6.05002 15.7361 6.24932 15.5368 6.27301 15.2844L6.37757 14.1741L7.17888 14.2673C7.3277 14.2874 7.47757 14.2374 7.59035 14.1376C7.70261 14.0372 7.76698 13.894 7.76698 13.7436V12.7617H8.73104C8.8711 12.7617 9.00501 12.7061 9.10387 12.6072L10.4562 11.2728C12.5213 11.9422 14.7587 11.446 16.3036 9.90004C18.5655 7.63827 18.5655 3.95815 16.3036 1.69634ZM14.8118 5.42536C14.1948 6.04232 13.1916 6.04232 12.5747 5.42536C11.9577 4.8084 11.9577 3.80522 12.5747 3.18826C13.1916 2.57131 14.1948 2.57131 14.8118 3.18826C15.4287 3.80522 15.4287 4.8084 14.8118 5.42536Z" fill="#CCCCCC"/>
</svg>
