<svg width="18" height="18" viewBox="0 0 18 18" fill="none" xmlns="http://www.w3.org/2000/svg">
<path d="M15.6134 13.5899C13.715 12.1835 11.8937 11.2618 11.4824 11.0599C11.4273 11.0342 11.3943 10.9791 11.3943 10.9203V9.2459C11.6513 8.80893 11.8166 8.34993 11.879 7.93132C12.0663 7.91663 12.3086 7.65591 12.573 6.72322C12.9329 5.44903 12.551 5.26176 12.2278 5.29113C12.2903 5.11487 12.338 4.94229 12.3674 4.76603C12.9182 1.46488 11.2915 1.35105 11.2915 1.35105C11.2915 1.35105 11.0234 0.833297 10.311 0.44039C9.83735 0.157645 9.17271 -0.0590048 8.30244 0.0144357C8.0197 0.0291238 7.75164 0.0842041 7.50194 0.168661C7.18248 0.278821 6.88871 0.436718 6.62066 0.620319C6.29385 0.825953 5.9854 1.07932 5.71367 1.36941C5.28404 1.81005 4.89848 2.37922 4.73324 3.08792C4.5937 3.61669 4.62675 4.17116 4.74058 4.76603C4.77363 4.93862 4.81769 5.11487 4.88012 5.29113C4.55698 5.26176 4.17142 5.44903 4.53495 6.72322C4.79933 7.65591 5.04536 7.91663 5.22896 7.93132C5.29506 8.3536 5.4603 8.81994 5.71367 9.26059V10.9203C5.71367 10.9791 5.68062 11.0342 5.62554 11.0599C5.21427 11.2618 3.39295 12.1798 1.49451 13.5899C0.550803 14.2913 1.59687e-08 15.4076 1.59687e-08 16.5826V17.0343C1.59687e-08 17.5667 0.433299 18 0.965742 18H7.4285H9.67211H16.1349C16.6673 18 17.1006 17.5667 17.1006 17.0343V16.5826C17.1116 15.4039 16.5608 14.2913 15.6134 13.5899Z" fill="black" fill-opacity="0.2"/>
</svg>
