<svg width="27" height="30" viewBox="0 0 27 30" fill="none" xmlns="http://www.w3.org/2000/svg">
  <g id="budget">
    <g id="Group">
      <g id="Group_2">
        <path id="Vector"
              d="M0.585938 0C0.2625 0 0 0.2625 0 0.585938C0 0.909375 0.2625 1.17188 0.585938 1.17188C0.909375 1.17188 1.17188 0.909375 1.17188 0.585938C1.17188 0.2625 0.909375 0 0.585938 0Z"
              transform="translate(14.0625 14.2383)" fill="white"/>
      </g>
    </g>
    <g id="Group_3">
      <g id="Group_4">
        <path id="Vector_2"
              d="M1.79532 3.51562C1.47224 3.51562 1.20938 3.25277 1.20938 2.92969C1.20938 2.6066 1.47224 2.34375 1.79532 2.34375C2.00286 2.34375 2.22206 2.44969 2.42907 2.65002C2.66163 2.87508 3.03265 2.86887 3.25759 2.63643C3.48259 2.40381 3.47649 2.03291 3.24393 1.80785C2.94657 1.5201 2.64903 1.35738 2.3812 1.2685V0.585938C2.3812 0.262383 2.11888 0 1.79526 0C1.47165 0 1.20933 0.262383 1.20933 0.585938V1.27266C0.527412 1.51453 0.0375094 2.16586 0.0375094 2.92969C0.0375094 3.89895 0.826064 4.6875 1.79532 4.6875C2.11841 4.6875 2.38126 4.95035 2.38126 5.27344C2.38126 5.59652 2.11841 5.85938 1.79532 5.85938C1.54495 5.85938 1.27472 5.70193 1.03442 5.41617C0.826181 5.16838 0.456572 5.13645 0.208896 5.34469C-0.038838 5.55293 -0.0707717 5.92254 0.13747 6.17021C0.450713 6.54287 0.819033 6.8025 1.20938 6.9334V7.61719C1.20938 7.94074 1.47171 8.20312 1.79532 8.20312C2.11894 8.20312 2.38126 7.94074 2.38126 7.61719V6.93047C3.06323 6.68859 3.55313 6.03732 3.55313 5.27344C3.55313 4.30418 2.76458 3.51562 1.79532 3.51562Z"
              transform="translate(2.30615 2.34375)" fill="white"/>
      </g>
    </g>
    <g id="Group_5">
      <g id="Group_6">
        <path id="Vector_3"
              d="M2.92969 0H0.585938C0.262324 0 0 0.262383 0 0.585938V2.92969C0 3.25324 0.262324 3.51562 0.585938 3.51562H2.92969C3.25324 3.51562 3.51562 3.25324 3.51562 2.92969V0.585938C3.51562 0.262383 3.25324 0 2.92969 0ZM2.34375 2.34375H1.17188V1.17188H2.34375V2.34375Z"
              transform="translate(11.7188 19.2773)" fill="white"/>
      </g>
    </g>
    <g id="Group_7">
      <g id="Group_8">
        <path id="Vector_4"
              d="M2.92969 0H0.585938C0.262383 0 0 0.262383 0 0.585938V2.92969C0 3.25324 0.262383 3.51562 0.585938 3.51562H2.92969C3.25324 3.51562 3.51562 3.25324 3.51562 2.92969V0.585938C3.51562 0.262383 3.25324 0 2.92969 0ZM2.34375 2.34375H1.17188V1.17188H2.34375V2.34375Z"
              transform="translate(16.4062 19.2773)" fill="white"/>
      </g>
    </g>
    <g id="Group_9">
      <g id="Group_10">
        <path id="Vector_5"
              d="M2.92969 0H0.585938C0.262324 0 0 0.262383 0 0.585938V2.92969C0 3.25324 0.262324 3.51562 0.585938 3.51562H2.92969C3.25324 3.51562 3.51562 3.25324 3.51562 2.92969V0.585938C3.51562 0.262383 3.25324 0 2.92969 0ZM2.34375 2.34375H1.17188V1.17188H2.34375V2.34375Z"
              transform="translate(11.7188 23.9648)" fill="white"/>
      </g>
    </g>
    <g id="Group_11">
      <g id="Group_12">
        <path id="Vector_6"
              d="M2.92969 0H0.585938C0.262383 0 0 0.262383 0 0.585938V2.92969C0 3.25324 0.262383 3.51562 0.585938 3.51562H2.92969C3.25324 3.51562 3.51562 3.25324 3.51562 2.92969V0.585938C3.51562 0.262383 3.25324 0 2.92969 0ZM2.34375 2.34375H1.17188V1.17188H2.34375V2.34375Z"
              transform="translate(16.4062 23.9648)" fill="white"/>
      </g>
    </g>
    <g id="Group_13">
      <g id="Group_14">
        <path id="Vector_7"
              d="M2.92969 0H0.585938C0.262383 0 0 0.262383 0 0.585938V7.61719C0 7.94074 0.262383 8.20312 0.585938 8.20312H2.92969C3.25324 8.20312 3.51562 7.94074 3.51562 7.61719V0.585938C3.51562 0.262383 3.25324 0 2.92969 0ZM2.34375 7.03125H1.17188V1.17188H2.34375V7.03125Z"
              transform="translate(21.0938 19.2773)" fill="white"/>
      </g>
    </g>
    <g id="Group_15">
      <g id="Group_16">
        <path id="Vector_8"
              d="M12.3047 0H0.585938C0.262324 0 0 0.262383 0 0.585938V5.625C0 5.94855 0.262324 6.21094 0.585938 6.21094H12.3047C12.6282 6.21094 12.8906 5.94855 12.8906 5.625V0.585938C12.8906 0.262383 12.6282 0 12.3047 0ZM11.7188 5.03906H1.17188V1.17188H11.7188V5.03906Z"
              transform="translate(11.7188 11.8945)" fill="white"/>
      </g>
    </g>
    <g id="Group_17">
      <g id="Group_18">
        <path id="Vector_9"
              d="M25.1953 9.375H19.9219V5.83535C19.9219 5.37662 19.7463 4.94268 19.428 4.61379L15.4886 0.536016C15.3192 0.36082 15.111 0.221133 14.8874 0.130664C14.8795 0.12709 14.8714 0.123809 14.8632 0.120586C14.8627 0.120352 14.8621 0.120117 14.8616 0.119883C14.658 0.0403125 14.4435 0 14.2242 0H1.75781C0.788555 0 0 0.788555 0 1.75781V24.5508C0 25.52 0.788555 26.3086 1.75781 26.3086H9.375V28.2422C9.375 29.2114 10.1636 30 11.1328 30H25.1953C26.1646 30 26.9531 29.2114 26.9531 28.2422V11.1328C26.9531 10.1636 26.1646 9.375 25.1953 9.375ZM15.2344 1.95949L18.5856 5.42848C18.6916 5.53799 18.75 5.68242 18.75 5.83535V5.85938H15.8203C15.4972 5.85938 15.2344 5.59652 15.2344 5.27344V1.95949ZM9.375 11.1328V25.1367H1.75781C1.43473 25.1367 1.17188 24.8739 1.17188 24.5508V1.75781C1.17188 1.43473 1.43473 1.17188 1.75781 1.17188H14.0625V5.27344C14.0625 6.2427 14.8511 7.03125 15.8203 7.03125H18.75V9.375H11.1328C10.1636 9.375 9.375 10.1636 9.375 11.1328ZM25.7812 28.2422C25.7812 28.5653 25.5184 28.8281 25.1953 28.8281H11.1328C10.8097 28.8281 10.5469 28.5653 10.5469 28.2422V11.1328C10.5469 10.8097 10.8097 10.5469 11.1328 10.5469H25.1953C25.5184 10.5469 25.7812 10.8097 25.7812 11.1328V28.2422Z"
              fill="white"/>
      </g>
    </g>
    <g id="Group_19">
      <g id="Group_20">
        <path id="Vector_10"
              d="M5.27344 0H0.585938C0.262383 0 0 0.262383 0 0.585938C0 0.909492 0.262383 1.17188 0.585938 1.17188H5.27344C5.59699 1.17188 5.85938 0.909492 5.85938 0.585938C5.85938 0.262383 5.59699 0 5.27344 0Z"
              transform="translate(16.4062 14.2383)" fill="white"/>
      </g>
    </g>
    <g id="Group_21">
      <g id="Group_22">
        <path id="Vector_11"
              d="M5.27344 0H0.585938C0.262324 0 0 0.262383 0 0.585938C0 0.909492 0.262324 1.17188 0.585938 1.17188H5.27344C5.59699 1.17188 5.85938 0.909492 5.85938 0.585938C5.85938 0.262383 5.59699 0 5.27344 0Z"
              transform="translate(7.03125 7.03125)" fill="white"/>
      </g>
    </g>
    <g id="Group_23">
      <g id="Group_24">
        <path id="Vector_12"
              d="M5.27344 0H0.585938C0.262324 0 0 0.262383 0 0.585938C0 0.909492 0.262324 1.17188 0.585938 1.17188H5.27344C5.59699 1.17188 5.85938 0.909492 5.85938 0.585938C5.85938 0.262383 5.59699 0 5.27344 0Z"
              transform="translate(7.03125 4.6875)" fill="white"/>
      </g>
    </g>
    <g id="Group_25">
      <g id="Group_26">
        <path id="Vector_13"
              d="M5.27344 0H0.585938C0.262324 0 0 0.262383 0 0.585938C0 0.909492 0.262324 1.17188 0.585938 1.17188H5.27344C5.59705 1.17188 5.85938 0.909492 5.85938 0.585938C5.85938 0.262383 5.59705 0 5.27344 0Z"
              transform="translate(2.34375 11.8945)" fill="white"/>
      </g>
    </g>
    <g id="Group_27">
      <g id="Group_28">
        <path id="Vector_14"
              d="M1.75781 0H0.585938C0.262324 0 0 0.262383 0 0.585938C0 0.909492 0.262324 1.17188 0.585938 1.17188H1.75781C2.08143 1.17188 2.34375 0.909492 2.34375 0.585938C2.34375 0.262383 2.08143 0 1.75781 0Z"
              transform="translate(2.34375 14.2383)" fill="white"/>
      </g>
    </g>
    <g id="Group_29">
      <g id="Group_30">
        <path id="Vector_15"
              d="M1.75781 0H0.585938C0.262324 0 0 0.262383 0 0.585938C0 0.909492 0.262324 1.17188 0.585938 1.17188H1.75781C2.08143 1.17188 2.34375 0.909492 2.34375 0.585938C2.34375 0.262383 2.08143 0 1.75781 0Z"
              transform="translate(5.85938 14.2383)" fill="white"/>
      </g>
    </g>
    <g id="Group_31">
      <g id="Group_32">
        <path id="Vector_16"
              d="M1.75781 0H0.585938C0.262324 0 0 0.262383 0 0.585938C0 0.909492 0.262324 1.17188 0.585938 1.17188H1.75781C2.08143 1.17188 2.34375 0.909492 2.34375 0.585938C2.34375 0.262383 2.08143 0 1.75781 0Z"
              transform="translate(2.34375 16.9336)" fill="white"/>
      </g>
    </g>
    <g id="Group_33">
      <g id="Group_34">
        <path id="Vector_17"
              d="M1.75781 0H0.585938C0.262324 0 0 0.262383 0 0.585938C0 0.909492 0.262324 1.17188 0.585938 1.17188H1.75781C2.08143 1.17188 2.34375 0.909492 2.34375 0.585938C2.34375 0.262383 2.08143 0 1.75781 0Z"
              transform="translate(5.85938 16.9336)" fill="white"/>
      </g>
    </g>
    <g id="Group_35">
      <g id="Group_36">
        <path id="Vector_18"
              d="M1.75781 0H0.585938C0.262324 0 0 0.262383 0 0.585938C0 0.909492 0.262324 1.17188 0.585938 1.17188H1.75781C2.08143 1.17188 2.34375 0.909492 2.34375 0.585938C2.34375 0.262383 2.08143 0 1.75781 0Z"
              transform="translate(2.34375 19.2773)" fill="white"/>
      </g>
    </g>
    <g id="Group_37">
      <g id="Group_38">
        <path id="Vector_19"
              d="M1.75781 0H0.585938C0.262324 0 0 0.262383 0 0.585938C0 0.909492 0.262324 1.17188 0.585938 1.17188H1.75781C2.08143 1.17188 2.34375 0.909492 2.34375 0.585938C2.34375 0.262383 2.08143 0 1.75781 0Z"
              transform="translate(5.85938 19.2773)" fill="white"/>
      </g>
    </g>
    <g id="Group_39">
      <g id="Group_40">
        <path id="Vector_20"
              d="M1.75781 0H0.585938C0.262324 0 0 0.262383 0 0.585938C0 0.909492 0.262324 1.17188 0.585938 1.17188H1.75781C2.08143 1.17188 2.34375 0.909492 2.34375 0.585938C2.34375 0.262383 2.08143 0 1.75781 0Z"
              transform="translate(2.34375 21.6211)" fill="white"/>
      </g>
    </g>
    <g id="Group_41">
      <g id="Group_42">
        <path id="Vector_21"
              d="M1.75781 0H0.585938C0.262324 0 0 0.262383 0 0.585938C0 0.909492 0.262324 1.17188 0.585938 1.17188H1.75781C2.08143 1.17188 2.34375 0.909492 2.34375 0.585938C2.34375 0.262383 2.08143 0 1.75781 0Z"
              transform="translate(5.85938 21.6211)" fill="white"/>
      </g>
    </g>
  </g>
</svg>
