<svg width="44" height="26" viewBox="0 0 44 26" fill="none" xmlns="http://www.w3.org/2000/svg">
  <g id="team">
    <g id="Group">
      <g id="Group_2">
        <path id="Vector"
              d="M7.63066 1.0176C7.03124 0.370817 6.18458 -3.17209e-08 5.30794 -3.17209e-08H3.18256C2.30592 -3.17209e-08 1.45927 0.370904 0.859925 1.0176C0.260584 1.6643 -0.0503957 2.54236 0.00667625 3.42657L0.100937 4.89053L0.321427 8.30948C0.409348 9.67079 1.16782 10.8759 2.35022 11.5334C2.94357 11.8632 3.59424 12.0281 4.24517 12.0281C4.89584 12.0281 5.54694 11.8632 6.14011 11.5334C7.32259 10.876 8.08107 9.67079 8.16882 8.30948L8.42084 4.40269L8.48383 3.42657C8.54107 2.54236 8.23009 1.6643 7.63066 1.0176ZM1.7508 3.31163C1.72466 2.9072 1.86134 2.52149 2.13556 2.22568C2.40978 1.92988 2.7816 1.76703 3.18256 1.76703H4.71451L4.42727 2.5415C4.29555 2.73319 3.62954 3.56135 1.78619 3.85941L1.7508 3.31163ZM6.42444 8.19453C6.37577 8.95063 5.95458 9.62011 5.29765 9.9853C4.63858 10.3517 3.85175 10.3517 3.19268 9.9853C2.53575 9.6202 2.11448 8.95072 2.06563 8.19453L1.89999 5.6274C3.4483 5.40548 4.45511 4.86913 5.08188 4.36908C5.19979 4.45397 5.3309 4.53426 5.47513 4.60953C5.74052 4.74812 6.12143 4.88533 6.6289 5.02496L6.42444 8.19453ZM6.27765 3.03973C6.22032 3.00976 6.17542 2.983 6.13891 2.95926L6.39393 2.27185C6.62102 2.53769 6.74373 2.86823 6.74271 3.21825C6.47243 3.13224 6.33746 3.071 6.27765 3.03973Z"
              transform="translate(29.9824 2.37476)" fill="#3670CD"/>
      </g>
    </g>
    <g id="Group_3">
      <g id="Group_4">
        <path id="Vector_2"
              d="M43.861 6.87575L43.5091 4.91183C43.0752 2.49082 41.1777 0.558522 38.7875 0.103597C38.4267 0.0348217 38.0576 8.67674e-05 37.6905 8.67674e-05H36.6304C36.3986 8.67674e-05 36.1764 0.0932025 36.0124 0.258819L34.2278 2.06267L32.4431 0.258731C32.2792 0.0931153 32.0569 -4.6524e-07 31.8251 -4.6524e-07H30.7651C30.398 -4.6524e-07 30.0289 0.0348211 29.6681 0.10351C28.891 0.251369 28.165 0.551333 27.5065 0.991879C27.1982 0.953766 26.8875 0.932717 26.5777 0.932717H24.6467C24.4144 0.932717 24.1917 1.02618 24.0277 1.19249L21.9165 3.33363L19.7529 1.18582C19.5895 1.02358 19.3696 0.932717 19.1405 0.932717H17.2685C16.9674 0.932717 16.6654 0.952985 16.3653 0.988932C15.7068 0.549425 14.9813 0.250936 14.2066 0.10351C13.8458 0.0347345 13.4767 -4.6524e-07 13.1096 -4.6524e-07H12.0496C11.8178 -4.6524e-07 11.5955 0.0931153 11.4316 0.258731L9.647 2.06267L7.86243 0.258731C7.69859 0.0931153 7.47621 -4.6524e-07 7.24441 -4.6524e-07H6.18455C5.81744 -4.6524e-07 5.44836 0.0348211 5.08759 0.10351C2.69725 0.558435 0.799824 2.49065 0.365957 4.91166L0.0140137 6.87558C-0.0321751 7.13327 0.0370653 7.39833 0.203225 7.59937C0.369299 7.80033 0.614983 7.91657 0.874035 7.91657H9.63021L9.27029 9.92519C9.2241 10.1829 9.29343 10.4479 9.45951 10.6489C9.62558 10.8498 9.87126 10.966 10.1303 10.966H33.7164C33.9754 10.966 34.2211 10.8498 34.3873 10.6489C34.5532 10.4479 34.6226 10.1828 34.5764 9.92519L34.2164 7.91666H43.001C43.2601 7.91666 43.5057 7.8005 43.6719 7.59955C43.8379 7.39859 43.9071 7.13345 43.861 6.87575ZM18.7831 2.69975L21.3108 5.20885C21.6534 5.54892 22.2032 5.54589 22.5423 5.20218L25.0097 2.69975H25.8421L21.9231 6.66102L18.0042 2.69975H18.7831ZM10.0379 6.14988H1.92052L2.08591 5.22678C2.39158 3.52134 3.7278 2.16037 5.41108 1.83997C5.66551 1.79155 5.92567 1.76703 6.18447 1.76703H6.88244L9.02907 3.93685C9.37038 4.28177 9.92379 4.28177 10.2652 3.93685L12.4118 1.76703H13.1099C13.3173 1.76703 13.5257 1.78358 13.7313 1.81485C12.0164 2.7266 10.6788 4.27925 10.0379 6.14988ZM11.1767 9.19932L11.4633 7.60024C11.8694 5.33471 13.5594 3.4983 15.7348 2.90452L21.3053 8.53512C21.6467 8.88021 22.2 8.88013 22.5414 8.53512L28.1118 2.90452C30.2872 3.49838 31.9772 5.3348 32.3833 7.60024L32.6699 9.19932H11.1767ZM33.8085 6.1498C33.1684 4.28168 31.8336 2.73059 30.122 1.81831C30.3347 1.78479 30.5504 1.76695 30.7652 1.76695H31.463L33.6098 3.93676C33.7737 4.10238 33.996 4.19549 34.2278 4.19549C34.4596 4.19549 34.6818 4.10238 34.8458 3.93676L36.9924 1.76695H37.6904C37.9492 1.76695 38.2094 1.79155 38.4639 1.83988C40.1472 2.1602 41.4834 3.52134 41.789 5.2267L41.9545 6.14971H33.8085V6.1498Z"
              transform="translate(0 15.0339)" fill="#3670CD"/>
      </g>
    </g>
    <g id="Group_5">
      <g id="Group_6">
        <path id="Vector_3"
              d="M7.63064 1.0176C7.03122 0.370904 6.18465 -3.17209e-08 5.308 -3.17209e-08H3.18272C2.30607 -3.17209e-08 1.4595 0.370903 0.860163 1.01752C0.260736 1.66422 -0.0503315 2.54228 0.00665475 3.42657L0.101175 4.89061L0.321665 8.30948C0.409501 9.67079 1.16797 10.8759 2.35037 11.5334C2.94363 11.8631 3.59447 12.0281 4.24532 12.0281C4.89616 12.0281 5.547 11.8632 6.14026 11.5334C7.32275 10.8759 8.08122 9.6707 8.16897 8.30948L8.42099 4.40269L8.48398 3.42657C8.54114 2.54236 8.23007 1.6643 7.63064 1.0176ZM1.75095 3.31172C1.72481 2.9072 1.86149 2.52149 2.13571 2.22568C2.40993 1.92979 2.78176 1.76703 3.18272 1.76703H4.71458L4.42519 2.54713C4.31473 2.7059 3.64161 3.5552 1.78634 3.85863L1.75095 3.31172ZM6.42476 8.19436C6.37609 8.95063 5.95482 9.62003 5.29789 9.98521C4.63882 10.3516 3.8519 10.3516 3.19283 9.98521C2.53599 9.62011 2.11472 8.95063 2.06596 8.19445L1.90031 5.62731C3.44862 5.40539 4.45544 4.86904 5.0822 4.36899C5.20003 4.45388 5.33123 4.53409 5.47545 4.60945C5.74093 4.74804 6.12184 4.88524 6.62923 5.02487L6.42476 8.19436ZM6.2778 3.03973C6.22047 3.00976 6.17557 2.98291 6.13906 2.95926L6.39408 2.27185C6.62117 2.53769 6.74389 2.86831 6.74294 3.21825C6.47267 3.13224 6.3377 3.071 6.2778 3.03973Z"
              transform="translate(5.40186 2.37476)" fill="#3670CD"/>
      </g>
    </g>
    <g id="Group_7">
      <g id="Group_8">
        <path id="Vector_4"
              d="M9.73696 1.27166C8.98791 0.463586 7.92994 -6.34419e-08 6.83435 -6.34419e-08H3.9774C2.88181 -6.34419e-08 1.82384 0.463586 1.07479 1.27166C0.325744 2.07973 -0.0629628 3.17711 0.00833427 4.28211L0.135247 6.2501L0.431832 10.8458C0.543148 12.5714 1.50463 14.0993 3.00367 14.9327C3.7558 15.3508 4.5806 15.5598 5.40583 15.5598C6.23072 15.5598 7.05603 15.3507 7.808 14.9327C9.30712 14.0992 10.2685 12.5714 10.3798 10.8458L10.7187 5.59431V5.59422L10.8032 4.28211C10.8746 3.17711 10.486 2.07982 9.73696 1.27166ZM1.82135 5.23146L1.75271 4.16717C1.71209 3.53849 1.92444 2.93925 2.35043 2.47965C2.7765 2.01996 3.35424 1.76686 3.9774 1.76686H6.47066L5.91939 3.25273C5.75683 3.50531 4.76176 4.85042 1.82135 5.23146ZM8.63562 10.7307C8.56338 11.8513 7.93902 12.8432 6.96563 13.3843C5.98889 13.9273 4.82277 13.9273 3.84612 13.3843C2.87273 12.8432 2.24845 11.8512 2.17613 10.7307L1.93515 6.99624C4.26242 6.7117 5.69205 5.88102 6.51565 5.17325C6.7058 5.3341 6.93315 5.48387 7.19726 5.62177C7.57585 5.81952 8.1458 6.01684 8.92655 6.22057L8.63562 10.7307ZM9.05912 4.16708L9.04267 4.42278C8.43262 4.25032 8.13663 4.12351 7.99978 4.05205C7.77474 3.93451 7.65392 3.83836 7.59162 3.77773L8.17082 2.21641C8.27365 2.29481 8.37117 2.38229 8.46132 2.47965C8.88731 2.93925 9.09965 3.53849 9.05912 4.16708Z"
              transform="translate(16.5171)" fill="#3670CD"/>
      </g>
    </g>
    <g id="Group_9">
      <g id="Group_10">
        <path id="Vector_5"
              d="M3.14641 1.09966e-06H0.873989C0.391277 1.09966e-06 -1.15067e-07 0.395503 -1.15067e-07 0.883429C-1.15067e-07 1.37136 0.391277 1.76686 0.873989 1.76686H3.14641C3.62912 1.76686 4.0204 1.37136 4.0204 0.883429C4.0204 0.395503 3.62912 1.09966e-06 3.14641 1.09966e-06Z"
              transform="translate(12.3232 21.8212)" fill="#3670CD"/>
      </g>
    </g>
    <g id="Group_11">
      <g id="Group_12">
        <path id="Vector_6"
              d="M1.0488 1.09966e-06H0.873988C0.391276 1.09966e-06 2.30134e-07 0.395503 2.30134e-07 0.883429C2.30134e-07 1.37136 0.391276 1.76686 0.873988 1.76686H1.0488C1.53152 1.76686 1.92279 1.37136 1.92279 0.883429C1.92279 0.395503 1.53152 1.09966e-06 1.0488 1.09966e-06Z"
              transform="translate(17.043 21.8212)" fill="#3670CD"/>
      </g>
    </g>
  </g>
</svg>
