<svg width="26" height="26" viewBox="0 0 26 26" fill="none" xmlns="http://www.w3.org/2000/svg">
  <g id="man">
    <g id="Group">
      <g id="Group_2">
        <g id="Vector" transform="translate(8.17725 1)">
          <path
            d="M8.96709 1.12328C8.2885 0.398931 7.36805 2.80408e-09 6.37551 2.80408e-09H3.55161C2.55902 2.80408e-09 1.63862 0.398883 0.960027 1.12328C0.28139 1.84759 -0.0567903 2.79195 0.00780115 3.78244L0.133333 5.707L0.42646 10.201C0.527995 11.7583 1.40496 13.1371 2.77243 13.8892C3.45861 14.2665 4.21094 14.4551 4.96361 14.4551C5.71613 14.4551 6.46885 14.2664 7.15479 13.8892C8.52221 13.1371 9.39922 11.7583 9.50076 10.201L9.83566 5.06574V5.06569L9.91932 3.78249C9.98396 2.79195 9.64573 1.84759 8.96709 1.12328ZM0.973021 3.71956C0.926072 2.99886 1.17215 2.31173 1.66589 1.78471C2.15966 1.25768 2.82934 0.967449 3.55156 0.967449H6.37547C6.43812 0.967449 6.50014 0.970437 6.56194 0.974753L5.81378 2.96993C5.75151 3.07042 5.45174 3.5154 4.76746 3.9774C4.09926 4.42855 2.92898 4.98104 1.06678 5.15688L0.973021 3.71956ZM8.53535 10.1381C8.45539 11.3641 7.76504 12.4495 6.68847 13.0415C5.60838 13.6356 4.31859 13.6356 3.23851 13.0415C2.16199 12.4495 1.47159 11.364 1.39159 10.1381L1.12966 6.1222C3.85398 5.87232 5.33987 4.87651 6.07195 4.16164C6.26772 4.38615 6.54738 4.59292 6.90875 4.77958C7.29914 4.98127 7.94895 5.19326 8.84355 5.41117L8.53535 10.1381ZM8.954 3.71951L8.90762 4.43059C8.01122 4.20528 7.56951 4.03208 7.35292 3.92016C6.82552 3.64762 6.70644 3.42221 6.70326 3.35302C6.70364 3.35207 6.70388 3.35107 6.70421 3.35013C6.70449 3.34941 6.70483 3.34875 6.70506 3.34804L7.50164 1.22378C7.78273 1.36007 8.03972 1.54839 8.26114 1.78471C8.75492 2.31173 9.001 2.99895 8.954 3.71951Z"
            fill="white"/>
          <path
            d="M8.96709 1.12328C8.2885 0.398931 7.36805 2.80408e-09 6.37551 2.80408e-09H3.55161C2.55902 2.80408e-09 1.63862 0.398883 0.960027 1.12328C0.28139 1.84759 -0.0567903 2.79195 0.00780115 3.78244L0.133333 5.707L0.42646 10.201C0.527995 11.7583 1.40496 13.1371 2.77243 13.8892C3.45861 14.2665 4.21094 14.4551 4.96361 14.4551C5.71613 14.4551 6.46885 14.2664 7.15479 13.8892C8.52221 13.1371 9.39922 11.7583 9.50076 10.201L9.83566 5.06574V5.06569L9.91932 3.78249C9.98396 2.79195 9.64573 1.84759 8.96709 1.12328ZM0.973021 3.71956C0.926072 2.99886 1.17215 2.31173 1.66589 1.78471C2.15966 1.25768 2.82934 0.967449 3.55156 0.967449H6.37547C6.43812 0.967449 6.50014 0.970437 6.56194 0.974753L5.81378 2.96993C5.75151 3.07042 5.45174 3.5154 4.76746 3.9774C4.09926 4.42855 2.92898 4.98104 1.06678 5.15688L0.973021 3.71956ZM8.53534 10.1381C8.45539 11.3641 7.76504 12.4495 6.68847 13.0415C5.60838 13.6356 4.31859 13.6356 3.23851 13.0415C2.16199 12.4495 1.47159 11.364 1.39159 10.1381L1.12966 6.1222C3.85398 5.87232 5.33987 4.87651 6.07195 4.16164C6.26772 4.38615 6.54738 4.59292 6.90875 4.77958C7.29914 4.98127 7.94895 5.19326 8.84355 5.41117L8.53534 10.1381ZM8.954 3.71951L8.90762 4.43059C8.01122 4.20527 7.56951 4.03208 7.35292 3.92016C6.82552 3.64762 6.70644 3.42221 6.70326 3.35302C6.70364 3.35207 6.70388 3.35107 6.70421 3.35013C6.70449 3.34941 6.70483 3.34875 6.70506 3.34804L7.50164 1.22378C7.78273 1.36007 8.03972 1.54839 8.26114 1.78471C8.75492 2.31173 9.001 2.99895 8.954 3.71951Z"
            stroke="white" stroke-width="0.5"/>
        </g>
      </g>
    </g>
    <g id="Group_3">
      <g id="Group_4">
        <g id="Vector_2" transform="translate(1 15.949)">
          <path
            d="M24.2734 8.48116L23.8057 5.89964C23.5436 4.45288 22.8558 3.13956 21.8166 2.10164C20.7896 1.07591 19.4953 0.392243 18.0737 0.124535C18.0736 0.124535 18.0735 0.124489 18.0735 0.124489C17.6354 0.0419709 17.1872 0.000142492 16.7414 0.000142492H15.3329C15.2046 0.000142492 15.0816 0.0511233 14.9909 0.141798L12.1406 2.99198L9.29029 0.141656C9.19956 0.0509814 9.07655 6.59953e-07 8.94826 6.59953e-07H7.53977C7.09394 6.59953e-07 6.64578 0.0418276 6.20763 0.124345C6.20758 0.124345 6.20749 0.124393 6.20744 0.124393C4.78577 0.392102 3.49147 1.07577 2.46446 2.1015C1.4253 3.13942 0.737511 4.45273 0.475399 5.8995L0.0077511 8.48116C-0.0178104 8.6222 0.0205556 8.76737 0.112416 8.87739C0.204324 8.98737 0.340336 9.05101 0.483698 9.05101H23.7974C23.9408 9.05101 24.0768 8.98741 24.1687 8.87739C24.2606 8.76737 24.2989 8.6222 24.2734 8.48116ZM12.4826 4.01804L15.5332 0.96745H16.7414C16.804 0.96745 16.8667 0.968398 16.9293 0.970343L14.535 3.36468L12.1406 5.75898L11.4411 5.05952L12.4826 4.01804ZM7.53977 0.967354H8.7479V0.967402L11.4565 3.67602L10.7571 4.37548L9.74622 3.36464L7.35188 0.970295C7.41452 0.968351 7.47712 0.967354 7.53977 0.967354ZM1.06293 8.08366L1.42734 6.07203C1.86815 3.6388 3.74647 1.68066 6.14024 1.12679L11.7985 6.78505C11.893 6.87947 12.0168 6.9267 12.1406 6.9267C12.2643 6.9267 12.3881 6.87947 12.4826 6.78505L18.1409 1.12679C20.5346 1.68071 22.4129 3.63889 22.8538 6.07203L23.2182 8.08366H1.06293Z"
            fill="white"/>
          <path
            d="M24.2734 8.48116L23.8057 5.89964C23.5436 4.45287 22.8558 3.13956 21.8166 2.10164C20.7896 1.07591 19.4953 0.392243 18.0737 0.124535C18.0736 0.124535 18.0735 0.124489 18.0735 0.124489C17.6354 0.0419709 17.1872 0.000142492 16.7414 0.000142492H15.3329C15.2046 0.000142492 15.0816 0.0511233 14.9909 0.141798L12.1406 2.99198L9.29029 0.141656C9.19956 0.0509814 9.07655 6.59953e-07 8.94826 6.59953e-07H7.53977C7.09394 6.59953e-07 6.64578 0.0418276 6.20763 0.124345C6.20758 0.124345 6.20749 0.124393 6.20744 0.124393C4.78577 0.392102 3.49147 1.07577 2.46446 2.1015C1.4253 3.13942 0.737511 4.45273 0.475399 5.8995L0.0077511 8.48116C-0.0178104 8.6222 0.0205556 8.76737 0.112416 8.87739C0.204324 8.98737 0.340336 9.05101 0.483698 9.05101H23.7974C23.9408 9.05101 24.0768 8.98741 24.1687 8.87739C24.2606 8.76737 24.2989 8.6222 24.2734 8.48116ZM12.4826 4.01804L15.5332 0.96745H16.7414C16.804 0.96745 16.8667 0.968398 16.9293 0.970343L14.535 3.36468L12.1406 5.75898L11.4411 5.05952L12.4826 4.01804ZM7.53977 0.967354H8.7479V0.967402L11.4565 3.67602L10.7571 4.37548L9.74622 3.36464L7.35188 0.970295C7.41452 0.968351 7.47712 0.967354 7.53977 0.967354ZM1.06293 8.08366L1.42734 6.07203C1.86815 3.6388 3.74647 1.68066 6.14024 1.12679L11.7985 6.78505C11.893 6.87947 12.0168 6.9267 12.1406 6.9267C12.2643 6.9267 12.3881 6.87947 12.4826 6.78505L18.1409 1.12679C20.5346 1.68071 22.4129 3.63889 22.8538 6.07203L23.2182 8.08366H1.06293Z"
            stroke="white" stroke-width="0.5"/>
        </g>
      </g>
    </g>
  </g>
</svg>
