<svg width="31" height="28" viewBox="0 0 31 28" fill="none" xmlns="http://www.w3.org/2000/svg">
  <g id="presentation">
    <g id="Group">
      <g id="Group_2">
        <g id="Vector" transform="translate(26.5879 9.729)">
          <path
            d="M0.572917 1.15136C0.889331 1.15136 1.14584 0.893619 1.14584 0.57568C1.14584 0.25774 0.889331 0 0.572917 0C0.256504 0 0 0.25774 0 0.57568C0 0.893619 0.256504 1.15136 0.572917 1.15136Z"
            fill="white"/>
          <path
            d="M1.14584 0.57568C1.14584 0.893619 0.889331 1.15136 0.572917 1.15136C0.256504 1.15136 -2.79745e-07 0.893619 -2.79745e-07 0.57568C-2.79745e-07 0.25774 0.256504 -1.40547e-07 0.572917 -1.40547e-07C0.889331 -1.40547e-07 1.14584 0.25774 1.14584 0.57568Z"
            stroke="white" stroke-width="0.25"/>
        </g>
      </g>
    </g>
    <g id="Group_3">
      <g id="Group_4">
        <g id="Vector_2" transform="translate(11.437 13.0714)">
          <path
            d="M0.572918 1.15136C0.889331 1.15136 1.14584 0.893619 1.14584 0.575679C1.14584 0.25774 0.889331 0 0.572918 0C0.256504 0 0 0.25774 0 0.575679C0 0.893619 0.256504 1.15136 0.572918 1.15136Z"
            fill="white"/>
          <path
            d="M1.14584 0.575679C1.14584 0.893619 0.889331 1.15136 0.572918 1.15136C0.256504 1.15136 -1.04904e-07 0.893619 -1.04904e-07 0.575679C-1.04904e-07 0.25774 0.256504 -2.81094e-07 0.572918 -2.81094e-07C0.889331 -2.81094e-07 1.14584 0.25774 1.14584 0.575679Z"
            stroke="white" stroke-width="0.25"/>
        </g>
      </g>
    </g>
    <g id="Group_5">
      <g id="Group_6">
        <g id="Vector_3" transform="translate(1 1)">
          <path
            d="M27.6266 2.77668H23.1713C22.8987 1.20167 21.5294 1.75684e-08 19.8852 1.75684e-08C18.241 1.75684e-08 16.8717 1.20167 16.5992 2.77668H12.1439C11.2027 2.77668 10.437 3.54607 10.437 4.49174V7.39086H7.24856C7.56406 6.94512 7.75037 6.40093 7.75037 5.8135C7.75037 4.30885 6.53212 3.08472 5.03474 3.08472C3.53725 3.08472 2.31906 4.30885 2.31906 5.8135C2.31906 6.58986 2.64396 7.29098 3.16365 7.78837C1.30637 8.55702 0 10.357 0 12.4498V16.7373C0 18.0408 1.00874 19.1171 2.30044 19.255V24.8485H0.867168C0.550803 24.8485 0.294251 25.1063 0.294251 25.4241C0.294251 25.742 0.550803 25.9998 0.867168 25.9998H16.6448C16.6461 25.9998 16.6476 26 16.6489 26C16.6504 26 16.6518 25.9998 16.6532 25.9998H23.4986C23.5 25.9998 23.5014 26 23.5028 26C23.5042 26 23.5056 25.9998 23.507 25.9998H28.2199C28.5362 25.9998 28.7928 25.742 28.7928 25.4241C28.7928 25.1063 28.5362 24.8485 28.2199 24.8485H23.9149L22.2732 19.9335H27.6265C28.5677 19.9335 29.3333 19.1641 29.3333 18.2184V4.49174C29.3334 3.54607 28.5677 2.77668 27.6266 2.77668ZM19.8852 1.15136C20.8949 1.15136 21.7472 1.84137 21.9997 2.77668H17.7708C18.0232 1.84137 18.8756 1.15136 19.8852 1.15136ZM5.03469 4.23608C5.90025 4.23608 6.60448 4.94371 6.60448 5.8135C6.60448 6.68324 5.90025 7.39086 5.03469 7.39086C4.16906 7.39086 3.46483 6.68324 3.46483 5.8135C3.46483 4.94371 4.16906 4.23608 5.03469 4.23608ZM6.9755 10.3823V24.8485H5.78378V18.3768C5.78378 18.059 5.52722 17.8012 5.21086 17.8012C4.89449 17.8012 4.63794 18.059 4.63794 18.3768V24.8485H3.44627V12.5989C3.44627 12.281 3.18978 12.0232 2.87335 12.0232C2.55699 12.0232 2.30044 12.281 2.30044 12.5989V18.0922C1.64296 17.966 1.14584 17.4065 1.14584 16.7373V12.4498C1.14584 10.2952 2.95276 8.54222 5.17379 8.54222H15.7025C15.4614 9.27581 14.7727 9.80665 13.9629 9.80665H7.54842C7.23206 9.80665 6.9755 10.0644 6.9755 10.3823ZM22.7063 24.8484H17.4455L19.0872 19.9334H21.0646L22.7063 24.8484ZM28.1876 18.2184C28.1876 18.5292 27.9359 18.7821 27.6266 18.7821C27.6266 18.7821 18.6862 18.7821 18.6849 18.7821H12.1439C11.8345 18.7821 11.5829 18.5292 11.5829 18.2184V14.8502C11.5829 14.5323 11.3263 14.2745 11.0099 14.2745C10.6936 14.2745 10.437 14.5323 10.437 14.8502V18.2184C10.437 19.1641 11.2027 19.9335 12.1439 19.9335H17.8785L16.2368 24.8485H8.12134V10.9581H13.9629C15.6045 10.9581 16.9401 9.6161 16.9401 7.9666C16.9401 7.64865 16.6835 7.39092 16.3672 7.39092H11.5829V4.4918C11.5829 4.18099 11.8345 3.92809 12.1439 3.92809H27.6266C27.9359 3.92809 28.1876 4.18099 28.1876 4.4918V18.2184Z"
            fill="white"/>
          <path
            d="M27.6266 2.77668H23.1713C22.8987 1.20167 21.5294 1.75684e-08 19.8852 1.75684e-08C18.241 1.75684e-08 16.8717 1.20167 16.5992 2.77668H12.1439C11.2027 2.77668 10.437 3.54607 10.437 4.49174V7.39086H7.24856C7.56406 6.94512 7.75037 6.40092 7.75037 5.8135C7.75037 4.30885 6.53212 3.08472 5.03474 3.08472C3.53725 3.08472 2.31906 4.30885 2.31906 5.8135C2.31906 6.58986 2.64396 7.29098 3.16365 7.78837C1.30637 8.55702 0 10.357 0 12.4498V16.7373C0 18.0408 1.00874 19.1171 2.30044 19.255V24.8485H0.867168C0.550803 24.8485 0.294251 25.1063 0.294251 25.4241C0.294251 25.742 0.550803 25.9998 0.867168 25.9998H16.6448C16.6461 25.9998 16.6476 26 16.6489 26C16.6504 26 16.6518 25.9998 16.6532 25.9998H23.4986C23.5 25.9998 23.5014 26 23.5028 26C23.5042 26 23.5056 25.9998 23.507 25.9998H28.2199C28.5362 25.9998 28.7928 25.742 28.7928 25.4241C28.7928 25.1063 28.5362 24.8485 28.2199 24.8485H23.9149L22.2732 19.9335H27.6265C28.5677 19.9335 29.3333 19.1641 29.3333 18.2184V4.49174C29.3334 3.54607 28.5677 2.77668 27.6266 2.77668ZM19.8852 1.15136C20.8949 1.15136 21.7472 1.84137 21.9997 2.77668H17.7708C18.0232 1.84137 18.8756 1.15136 19.8852 1.15136ZM5.03469 4.23608C5.90025 4.23608 6.60448 4.94371 6.60448 5.8135C6.60448 6.68324 5.90025 7.39086 5.03469 7.39086C4.16907 7.39086 3.46483 6.68324 3.46483 5.8135C3.46483 4.94371 4.16907 4.23608 5.03469 4.23608ZM6.9755 10.3823V24.8485H5.78378V18.3768C5.78378 18.059 5.52722 17.8012 5.21086 17.8012C4.89449 17.8012 4.63794 18.059 4.63794 18.3768V24.8485H3.44627V12.5989C3.44627 12.281 3.18978 12.0232 2.87335 12.0232C2.55699 12.0232 2.30044 12.281 2.30044 12.5989V18.0922C1.64296 17.966 1.14584 17.4065 1.14584 16.7373V12.4498C1.14584 10.2952 2.95276 8.54222 5.17379 8.54222H15.7025C15.4614 9.27581 14.7727 9.80665 13.9629 9.80665H7.54842C7.23206 9.80665 6.9755 10.0644 6.9755 10.3823ZM22.7063 24.8484H17.4455L19.0872 19.9334H21.0646L22.7063 24.8484ZM28.1876 18.2184C28.1876 18.5292 27.9359 18.7821 27.6266 18.7821C27.6266 18.7821 18.6862 18.7821 18.6849 18.7821H12.1439C11.8345 18.7821 11.5829 18.5292 11.5829 18.2184V14.8502C11.5829 14.5323 11.3263 14.2745 11.0099 14.2745C10.6936 14.2745 10.437 14.5323 10.437 14.8502V18.2184C10.437 19.1641 11.2027 19.9335 12.1439 19.9335H17.8785L16.2368 24.8485H8.12134V10.9581H13.9629C15.6045 10.9581 16.9401 9.6161 16.9401 7.9666C16.9401 7.64865 16.6835 7.39092 16.3672 7.39092H11.5829V4.4918C11.5829 4.18099 11.8345 3.92809 12.1439 3.92809H27.6266C27.9359 3.92809 28.1876 4.18099 28.1876 4.4918V18.2184V18.2184Z"
            stroke="white" stroke-width="0.25"/>
        </g>
      </g>
    </g>
    <g id="Group_7">
      <g id="Group_8">
        <g id="Vector_4" transform="translate(14.1772 11.4877)">
          <path
            d="M11.638 0.168609C11.4142 -0.0561939 11.0515 -0.0561934 10.8277 0.168552L8.37364 2.63448L7.47863 1.73515C7.25484 1.5104 6.89219 1.5104 6.66835 1.73515L3.50504 4.91371L2.62149 4.02589C2.51401 3.91795 2.36831 3.85728 2.21637 3.85728C2.06444 3.85728 1.91869 3.91795 1.81127 4.02589L0.167793 5.67735C-0.0559311 5.90215 -0.0559311 6.26667 0.167793 6.49153C0.279684 6.6039 0.426294 6.66015 0.572903 6.66015C0.719513 6.66015 0.866123 6.6039 0.978014 6.49153L2.21632 5.2472L3.09987 6.13501C3.32365 6.35976 3.68631 6.35976 3.91015 6.13501L7.07346 2.95645L7.96847 3.85578C8.19225 4.08053 8.55491 4.08053 8.77875 3.85578L11.638 0.982793C11.8617 0.75799 11.8617 0.39347 11.638 0.168609Z"
            fill="white"/>
          <path
            d="M11.638 0.168609C11.4142 -0.0561939 11.0515 -0.0561934 10.8277 0.168552L8.37364 2.63448L7.47863 1.73515C7.25484 1.5104 6.89219 1.5104 6.66835 1.73515L3.50504 4.91371L2.62149 4.02589C2.51401 3.91795 2.36831 3.85728 2.21637 3.85728C2.06444 3.85728 1.91869 3.91795 1.81127 4.02589L0.167793 5.67735C-0.0559311 5.90215 -0.0559311 6.26667 0.167793 6.49153C0.279684 6.6039 0.426294 6.66015 0.572903 6.66015C0.719513 6.66015 0.866123 6.6039 0.978014 6.49153L2.21632 5.2472L3.09987 6.13501C3.32365 6.35976 3.68631 6.35976 3.91015 6.13501L7.07346 2.95645L7.96847 3.85578C8.19225 4.08053 8.55491 4.08053 8.77875 3.85578L11.638 0.982793C11.8617 0.75799 11.8617 0.39347 11.638 0.168609Z"
            stroke="white" stroke-width="0.25"/>
        </g>
      </g>
    </g>
  </g>
</svg>
