<svg width="28" height="28" viewBox="0 0 28 28" fill="none" xmlns="http://www.w3.org/2000/svg">
  <g id="question (1)">
    <g id="Group">
      <g id="Group_2">
        <g id="Vector" transform="translate(1 1)">
          <path
            d="M13 0C5.82055 0 0 5.82055 0 13C0 20.1795 5.82055 26 13 26C20.1795 26 26 20.1795 26 13C26 5.82055 20.1795 0 13 0ZM13 24.7C6.54855 24.7 1.3 19.4515 1.3 13C1.3 6.54855 6.54855 1.3 13 1.3C19.4515 1.3 24.7 6.54855 24.7 13C24.7 19.4515 19.4515 24.7 13 24.7Z"
            fill="#3670CD"/>
          <path
            d="M13 0C5.82055 0 0 5.82055 0 13C0 20.1795 5.82055 26 13 26C20.1795 26 26 20.1795 26 13C26 5.82055 20.1795 0 13 0ZM13 24.7C6.54855 24.7 1.3 19.4515 1.3 13C1.3 6.54855 6.54855 1.3 13 1.3C19.4515 1.3 24.7 6.54855 24.7 13C24.7 19.4515 19.4515 24.7 13 24.7Z"
            stroke="#3670CD" stroke-width="0.25"/>
        </g>
      </g>
    </g>
    <g id="Group_3">
      <g id="Group_4">
        <g id="Vector_2" transform="translate(9.98193 6.57861)">
          <path
            d="M7.23059 0.913047C6.52686 0.304637 5.61991 -2.16961e-08 4.50968 -2.16961e-08H4.28609C3.13473 -2.16961e-08 2.15323 0.359226 1.34073 1.07641C0.446773 1.87637 1.1158e-07 2.94536 1.1158e-07 4.28568C1.1158e-07 4.50277 0.0610899 4.67177 0.182863 4.79355C0.304637 4.90273 0.453274 4.94955 0.629637 4.93568C0.792137 4.93568 0.934274 4.87459 1.05605 4.75282C1.19123 4.61805 1.25927 4.45555 1.25927 4.26532C1.25927 3.50741 1.43523 2.85091 1.7875 2.29496C2.30186 1.51018 3.13432 1.11673 4.28609 1.11673C5.26109 1.11673 5.99864 1.38064 6.5 1.90887C6.91945 2.34305 7.13614 2.90423 7.15 3.59496C7.15 4.20423 7.02132 4.74632 6.76391 5.21996C6.46577 5.76205 5.93105 6.35746 5.15927 7.00746C4.50927 7.53568 4.05559 8.12459 3.79818 8.77459C3.54037 9.39773 3.41209 10.1903 3.41209 11.151C3.41209 11.3412 3.47318 11.4964 3.59496 11.6181C3.71673 11.7273 3.86537 11.7806 4.04173 11.7806C4.20423 11.7806 4.34637 11.7273 4.46814 11.6181C4.60332 11.4964 4.67137 11.3412 4.67137 11.151C4.67137 10.2037 4.78618 9.47268 5.01673 8.95705C5.24641 8.46955 5.69359 7.95519 6.35746 7.4131C7.08891 6.79082 7.61673 6.18805 7.94173 5.60523C8.25287 5.03628 8.40887 4.40055 8.40887 3.69596C8.40882 2.50509 8.01577 1.57691 7.23059 0.913047Z"
            fill="#3670CD"/>
          <path
            d="M7.23059 0.913047C6.52686 0.304637 5.61991 -2.16961e-08 4.50968 -2.16961e-08H4.28609C3.13473 -2.16961e-08 2.15323 0.359227 1.34073 1.07641C0.446773 1.87637 1.1158e-07 2.94536 1.1158e-07 4.28568C1.1158e-07 4.50277 0.0610899 4.67177 0.182863 4.79355C0.304637 4.90273 0.453274 4.94955 0.629637 4.93568C0.792137 4.93568 0.934274 4.87459 1.05605 4.75282C1.19123 4.61805 1.25927 4.45555 1.25927 4.26532C1.25927 3.50741 1.43523 2.85091 1.7875 2.29496C2.30186 1.51018 3.13432 1.11673 4.28609 1.11673C5.26109 1.11673 5.99864 1.38064 6.5 1.90887C6.91945 2.34305 7.13614 2.90423 7.15 3.59496C7.15 4.20423 7.02132 4.74632 6.76391 5.21996C6.46577 5.76205 5.93105 6.35746 5.15927 7.00746C4.50927 7.53568 4.05559 8.12459 3.79818 8.77459C3.54037 9.39773 3.41209 10.1903 3.41209 11.151C3.41209 11.3412 3.47318 11.4964 3.59496 11.6181C3.71673 11.7273 3.86537 11.7806 4.04173 11.7806C4.20423 11.7806 4.34637 11.7273 4.46814 11.6181C4.60332 11.4964 4.67137 11.3412 4.67137 11.151C4.67137 10.2037 4.78618 9.47268 5.01673 8.95705C5.24641 8.46955 5.69359 7.95519 6.35746 7.4131C7.08891 6.79082 7.61673 6.18805 7.94173 5.60523C8.25287 5.03628 8.40887 4.40055 8.40887 3.69596C8.40882 2.50509 8.01577 1.57691 7.23059 0.913047Z"
            stroke="#3670CD" stroke-width="0.25"/>
        </g>
      </g>
    </g>
    <g id="Group_5">
      <g id="Group_6">
        <g id="Vector_3" transform="translate(13.1611 19.4517)">
          <path
            d="M0.83871 1.67742C1.30192 1.67742 1.67742 1.30192 1.67742 0.83871C1.67742 0.375503 1.30192 0 0.83871 0C0.375503 0 0 0.375503 0 0.83871C0 1.30192 0.375503 1.67742 0.83871 1.67742Z"
            fill="#3670CD"/>
          <path
            d="M1.67742 0.83871C1.67742 1.30192 1.30192 1.67742 0.83871 1.67742C0.375503 1.67742 -1.99964e-07 1.30192 -1.99964e-07 0.83871C-1.99964e-07 0.375503 0.375503 -1.99964e-07 0.83871 -1.99964e-07C1.30192 -1.99964e-07 1.67742 0.375503 1.67742 0.83871Z"
            stroke="#3670CD" stroke-width="0.25"/>
        </g>
      </g>
    </g>
  </g>
</svg>
