<svg width="35" height="28" viewBox="0 0 35 28" fill="none" xmlns="http://www.w3.org/2000/svg">
  <g id="mortarboard">
    <g id="Group">
      <g id="Group_2">
        <g id="Vector" transform="translate(1 1)">
          <path
            d="M33.2199 9.94054L17.1051 0.0959079C16.8957 -0.0319692 16.6327 -0.0319692 16.4233 0.0959079C16.4233 0.0959079 0.349369 9.91553 0.308509 9.94054C-0.110897 10.1967 -0.100224 10.8295 0.325534 11.0722L8.90328 15.9628V19.5643C8.90328 19.9262 9.19545 20.2199 9.55652 20.221C11.6061 20.2269 16.1091 20.6851 16.1091 23.57C16.1091 23.9326 16.4024 24.2267 16.7641 24.2267C17.1259 24.2267 17.4192 23.9326 17.4192 23.57C17.4192 21.1119 20.9491 20.2296 23.9718 20.221C24.3328 20.2199 24.625 19.9262 24.625 19.5643V15.9628L27.7693 14.1701V18.8065C26.8234 19.0898 26.1316 19.9696 26.1316 21.0089C26.1316 21.4042 26.2318 21.7766 26.4079 22.1018L24.904 23.6094C24.6482 23.8659 24.6482 24.2817 24.904 24.5382C25.1574 24.7921 25.5779 24.7913 25.8305 24.5382L27.3343 23.0306C27.4715 23.1052 27.6173 23.1658 27.7694 23.2114V25.3433C27.7694 25.7059 28.0627 26 28.4245 26C28.7862 26 29.0795 25.7059 29.0795 25.3433V23.2114C29.2317 23.1658 29.3774 23.1052 29.5146 23.0306C29.5146 23.0306 31.0119 24.5317 31.0184 24.5381C31.2631 24.7835 31.7003 24.7831 31.9449 24.5381C32.2007 24.2817 32.2007 23.8659 31.9449 23.6093L30.441 22.1017C30.6171 21.7765 30.7172 21.4042 30.7172 21.0089C30.7172 19.9697 30.0255 19.0897 29.0795 18.8064V13.4231C29.0795 13.4231 33.1988 11.0745 33.2027 11.0721C33.6162 10.8365 33.6458 10.2006 33.2199 9.94054ZM23.3149 12.2264C22.9212 12.0368 22.4438 11.87 21.8679 11.7206C21.1434 11.5341 20.3113 11.3916 19.3942 11.2957C19.041 11.2588 18.7122 11.5278 18.6757 11.8814C18.6391 12.2356 18.9081 12.5653 19.2594 12.6025C20.5361 12.7339 21.6615 12.9722 22.4294 13.2724C22.6982 13.3765 23.1688 13.537 23.3149 13.8114V18.9209H23.315C21.4334 18.9936 19.805 19.3593 18.5757 19.9887C17.7739 20.3991 17.1598 20.9115 16.745 21.5091C16.3289 20.9321 15.7269 20.4297 14.9572 20.0283C13.7069 19.3763 12.0773 18.9974 10.2136 18.9215V13.8103C10.2344 13.7755 10.3118 13.6855 10.4579 13.5903C10.7513 13.3919 11.2643 13.1864 11.8644 13.0255C12.5135 12.8489 13.3094 12.707 14.1649 12.613C14.5198 12.574 14.7841 12.2454 14.7454 11.8894C14.707 11.5357 14.3763 11.2681 14.0236 11.3075C12.7455 11.4478 11.3834 11.6658 10.2136 12.2268V11.1832C10.2756 11.0612 10.7269 10.6771 12.0899 10.3401C13.3661 10.0246 15.0263 9.8508 16.7644 9.8508C18.5025 9.8508 20.1627 10.0246 21.4389 10.3401C22.8018 10.6771 23.253 11.0611 23.3152 11.1832V12.2264H23.3149ZM29.4071 21.0088C29.4071 21.5519 28.9663 21.9939 28.4245 21.9939C27.8827 21.9939 27.4419 21.5519 27.4419 21.0088C27.4419 20.4656 27.8827 20.0237 28.4245 20.0237C28.9663 20.0237 29.4071 20.4655 29.4071 21.0088ZM24.6251 14.4517V11.1641C24.6251 9.0905 19.6838 8.53724 16.7641 8.53724C13.8445 8.53724 8.90321 9.0905 8.90321 11.1641V14.4517L1.94016 10.4817L16.7642 1.42568L31.5882 10.4817L24.6251 14.4517Z"
            fill="#3670CD"/>
          <path
            d="M33.2199 9.94054L17.1051 0.0959079C16.8957 -0.0319692 16.6327 -0.0319692 16.4233 0.0959079C16.4233 0.0959079 0.349369 9.91553 0.308509 9.94054C-0.110897 10.1967 -0.100224 10.8295 0.325534 11.0722L8.90328 15.9628V19.5643C8.90328 19.9262 9.19545 20.2199 9.55652 20.221C11.6061 20.2269 16.1091 20.6851 16.1091 23.57C16.1091 23.9326 16.4024 24.2267 16.7641 24.2267C17.1259 24.2267 17.4192 23.9326 17.4192 23.57C17.4192 21.1119 20.9491 20.2296 23.9718 20.221C24.3328 20.2199 24.625 19.9262 24.625 19.5643V15.9628L27.7693 14.1701V18.8065C26.8234 19.0898 26.1316 19.9696 26.1316 21.0089C26.1316 21.4042 26.2318 21.7766 26.4078 22.1018L24.904 23.6094C24.6482 23.8659 24.6482 24.2817 24.904 24.5382C25.1574 24.7921 25.5779 24.7913 25.8305 24.5382L27.3343 23.0306C27.4715 23.1052 27.6173 23.1658 27.7694 23.2114V25.3433C27.7694 25.7059 28.0628 26 28.4245 26C28.7862 26 29.0795 25.7059 29.0795 25.3433V23.2114C29.2317 23.1658 29.3774 23.1052 29.5146 23.0306C29.5146 23.0306 31.0119 24.5317 31.0184 24.5381C31.2631 24.7835 31.7003 24.7831 31.9449 24.5381C32.2007 24.2817 32.2007 23.8659 31.9449 23.6093L30.441 22.1017C30.6171 21.7765 30.7172 21.4042 30.7172 21.0089C30.7172 19.9697 30.0255 19.0897 29.0795 18.8064V13.4231C29.0795 13.4231 33.1988 11.0745 33.2027 11.0721C33.6162 10.8365 33.6458 10.2006 33.2199 9.94054ZM23.3149 12.2264C22.9212 12.0368 22.4438 11.87 21.8679 11.7206C21.1434 11.5341 20.3113 11.3916 19.3942 11.2957C19.041 11.2588 18.7122 11.5278 18.6757 11.8814C18.6391 12.2356 18.9081 12.5653 19.2594 12.6025C20.5361 12.7339 21.6615 12.9722 22.4294 13.2724C22.6982 13.3765 23.1688 13.537 23.3149 13.8114V18.9209H23.315C21.4334 18.9936 19.805 19.3593 18.5757 19.9887C17.7739 20.3991 17.1598 20.9115 16.745 21.5091C16.3289 20.9321 15.7269 20.4297 14.9572 20.0283C13.7069 19.3763 12.0773 18.9974 10.2136 18.9215V13.8103C10.2344 13.7755 10.3118 13.6855 10.4579 13.5903C10.7513 13.3919 11.2643 13.1864 11.8644 13.0255C12.5135 12.8489 13.3094 12.707 14.1649 12.613C14.5198 12.574 14.7841 12.2454 14.7454 11.8894C14.707 11.5357 14.3763 11.2681 14.0236 11.3075C12.7455 11.4478 11.3834 11.6658 10.2136 12.2268V11.1832C10.2756 11.0612 10.7269 10.6771 12.0899 10.3401C13.3661 10.0246 15.0263 9.8508 16.7644 9.8508C18.5025 9.8508 20.1627 10.0246 21.4389 10.3401C22.8018 10.6771 23.253 11.0611 23.3152 11.1832V12.2264H23.3149ZM29.4071 21.0088C29.4071 21.5519 28.9663 21.9939 28.4245 21.9939C27.8827 21.9939 27.4419 21.5519 27.4419 21.0088C27.4419 20.4656 27.8827 20.0237 28.4245 20.0237C28.9663 20.0237 29.4071 20.4655 29.4071 21.0088ZM24.6251 14.4517V11.1641C24.6251 9.09049 19.6838 8.53724 16.7641 8.53724C13.8445 8.53724 8.90321 9.09049 8.90321 11.1641V14.4517L1.94016 10.4817L16.7642 1.42568L31.5882 10.4817L24.6251 14.4517Z"
            stroke="#3670CD" stroke-width="0.25"/>
        </g>
      </g>
    </g>
    <g id="Group_3">
      <g id="Group_4">
        <g id="Vector_2" transform="translate(17.0552 12.1643)">
          <path
            d="M0.655076 1.6828e-07C0.655076 1.6828e-07 0.653176 1.6828e-07 0.653111 1.6828e-07C0.297811 1.6828e-07 -0.00130571 0.303282 3.90852e-06 0.658029C0.000658718 1.01921 0.294145 1.31343 0.656451 1.31343C1.01738 1.31212 1.3108 1.01724 1.31015 0.655402C1.30949 0.293566 1.01542 1.6828e-07 0.655076 1.6828e-07Z"
            fill="#3670CD"/>
          <path
            d="M0.655076 1.6828e-07C0.655076 1.6828e-07 0.653176 1.6828e-07 0.653111 1.6828e-07C0.297811 1.6828e-07 -0.00130571 0.303282 3.90852e-06 0.658029C0.000658718 1.01921 0.294145 1.31343 0.656451 1.31343C1.01738 1.31212 1.3108 1.01724 1.31015 0.655402C1.30949 0.293566 1.01542 1.6828e-07 0.655076 1.6828e-07Z"
            stroke="#3670CD" stroke-width="0.25"/>
        </g>
      </g>
    </g>
  </g>
</svg>
