<svg width="23" height="25" viewBox="0 0 23 25" version="1.1" xmlns="http://www.w3.org/2000/svg"
     xmlns:xlink="http://www.w3.org/1999/xlink">
  <g id="Canvas" fill="none">
    <g id="Group">
      <path id="Vector"
            d="M 11.0797 23.5675L 4.60777 23.5675C 2.84892 23.5675 1.42183 22.1244 1.42183 20.3576L 1.42183 4.6424C 1.42183 2.87033 2.85418 1.43251 4.60777 1.43251L 11.185 1.43251C 11.58 1.43251 11.8959 1.11418 11.8959 0.716256C 11.8959 0.318336 11.58 0 11.185 0L 4.60777 0C 2.06428 0 -7.23178e-09 2.0851 -7.23178e-09 4.6424L -7.23178e-09 20.3576C -7.23178e-09 22.9202 2.06955 25 4.60777 25L 11.0797 25C 11.4747 25 11.7906 24.6817 11.7906 24.2837C 11.7906 23.8858 11.4694 23.5675 11.0797 23.5675Z"
            fill="white"/>
      <path id="Vector_2"
            d="M 17.3515 4.76311L 12.8333 0.210898C 12.5542 -0.0702991 12.1066 -0.0702991 11.8275 0.210898C 11.5484 0.492095 11.5484 0.94307 11.8275 1.22427L 15.1345 4.55619L 0.710912 4.55619C 0.315961 4.55619 -1.4785e-07 4.87452 -1.4785e-07 5.27244C -1.4785e-07 5.67036 0.315961 5.9887 0.710912 5.9887L 15.1345 5.9887L 11.8275 9.32062C 11.5484 9.60181 11.5484 10.0528 11.8275 10.334C 11.9644 10.4719 12.1487 10.5462 12.3277 10.5462C 12.5068 10.5462 12.6911 10.4772 12.828 10.334L 17.3463 5.78178C 17.6306 5.49528 17.6306 5.039 17.3515 4.76311Z"
            transform="translate(5.43994 7.23291)" fill="white"/>
    </g>
  </g>
</svg>
