<svg width="14" height="14" viewBox="0 0 14 14" fill="none" xmlns="http://www.w3.org/2000/svg">
<g id="bell">
<path id="Vector" d="M13.125 10.8996C12.6416 10.8996 12.25 10.5094 12.25 10.0276V6.69672C12.2211 4.20812 10.353 2.12282 7.87499 1.8137V0.871977C7.87499 0.390216 7.48345 0 6.99999 0C6.51655 0 6.12498 0.390216 6.12498 0.871977V1.80061C3.61506 2.16205 1.7522 4.30491 1.75002 6.83187V10.0276C1.75002 10.5094 1.35845 10.8996 0.875009 10.8996C0.391572 10.8996 1.2191e-08 11.2898 1.2191e-08 11.7716C1.2191e-08 12.2533 0.391572 12.6435 0.875009 12.6435H13.125C13.6084 12.6435 14 12.2533 14 11.7716C14 11.2898 13.6084 10.8996 13.125 10.8996ZM3.35126 10.8996C3.45012 10.6193 3.50044 10.3245 3.50001 10.0276V6.83187C3.50001 4.98505 5.00238 3.48788 6.85562 3.48788H6.99999C8.96874 3.48788 10.5 4.89611 10.5 6.69672V10.0276C10.4996 10.3245 10.5499 10.6193 10.6487 10.8996H3.35126Z" fill="#828282"/>
<path id="Vector_2" d="M1.40002 2.74496C0.626518 2.74496 -2.04277e-07 2.13038 -2.04277e-07 1.37161C-2.04277e-07 1.00905 0.145589 0.660901 0.405995 0.403403C0.471817 0.338835 0.544612 0.281198 0.622985 0.231723C0.698568 0.18161 0.778382 0.138337 0.860985 0.101265C0.946377 0.0662445 1.036 0.0415296 1.12697 0.0257523C1.30756 -0.00858383 1.49238 -0.00858383 1.67297 0.0257523C1.76399 0.0415296 1.85357 0.0662445 1.93896 0.101265C2.02156 0.138337 2.10138 0.18161 2.17696 0.231723C2.25468 0.279101 2.32534 0.336783 2.38698 0.403403C2.65017 0.659533 2.7986 1.00768 2.79999 1.37161C2.80069 1.55291 2.76499 1.7328 2.69498 1.90033C2.62428 2.06649 2.51997 2.21619 2.38698 2.33981C2.32538 2.40643 2.25468 2.46412 2.17696 2.5115C2.10347 2.56439 2.02365 2.6083 1.93896 2.64195C1.85357 2.67697 1.76464 2.70237 1.67297 2.71747C1.58345 2.73739 1.49173 2.74633 1.40002 2.74496Z" transform="translate(5.6001 11.2549)" fill="#828282"/>
</g>
</svg>
