<svg width="14" height="14" viewBox="0 0 14 14" fill="none" xmlns="http://www.w3.org/2000/svg">
<g id="message">
<g id="Group">
<path id="Vector" d="M4.11764 1.66471H0.823539C0.368539 1.66471 8.67844e-08 1.29222 8.67844e-08 0.832353C8.67844e-08 0.372483 0.368539 -4.38566e-08 0.823539 -4.38566e-08H4.11767C4.57267 -4.38566e-08 4.94121 0.372483 4.94121 0.832353C4.94121 1.29222 4.57264 1.66471 4.11764 1.66471Z" transform="translate(4.5293 3.74548)" fill="#FF5847"/>
<path id="Vector_2" d="M4.11764 1.66471H0.823539C0.368539 1.66471 8.67844e-08 1.29222 8.67844e-08 0.832353C8.67844e-08 0.372483 0.368539 -1.3157e-07 0.823539 -1.3157e-07H4.11767C4.57267 -1.3157e-07 4.94121 0.372483 4.94121 0.832353C4.94121 1.29222 4.57264 1.66471 4.11764 1.66471Z" transform="translate(4.5293 6.24255)" fill="#FF5847"/>
</g>
<path id="Vector_3" d="M0.823539 14C0.368539 14 0 13.6275 0 13.1677V2.49703C0 1.11784 1.106 -9.48821e-10 2.47059 -9.48821e-10H11.5294C12.894 -9.48821e-10 14 1.11784 14 2.49703V9.15578C14 10.535 12.894 11.6528 11.5294 11.6528H5.02764C4.17692 11.6516 3.35669 11.9741 2.73 12.5559L2.69705 12.5892L1.37118 13.7878C1.22046 13.9239 1.02572 13.9996 0.823539 14ZM2.47059 1.66468C2.01559 1.66468 1.64705 2.03716 1.64705 2.49703V11.2991C2.576 10.4563 3.77959 9.98938 5.02764 9.98813H11.5294C11.9844 9.98813 12.3529 9.61565 12.3529 9.15578V2.49703C12.3529 2.03716 11.9844 1.66468 11.5294 1.66468H2.47059Z" fill="#FF5847"/>
</g>
</svg>
