<svg width="22" height="22" viewBox="0 0 22 22" version="1.1" xmlns="http://www.w3.org/2000/svg"
     xmlns:xlink="http://www.w3.org/1999/xlink">
  <g id="Canvas" fill="none">
    <path id="Union" fill-rule="evenodd" clip-rule="evenodd"
          d="M 11 0L 10.9785 0C 4.92529 0 0 4.93469 0 11C 0 17.0653 4.92529 22 10.9785 22L 11 22L 11.0215 22C 17.0747 22 22 17.0653 22 11C 22 4.93469 17.0747 0 11.0215 0L 11 0ZM 11 1.37506L 10.9785 1.37506C 5.68213 1.37506 1.37256 5.69275 1.37256 11C 1.37256 16.3073 5.68213 20.6249 10.9785 20.6249L 11 20.6249L 11.0215 20.6249C 16.3179 20.6249 20.6274 16.3073 20.6274 11C 20.6274 5.69275 16.3179 1.37506 11.0215 1.37506L 11 1.37506ZM 11 2.75L 10.9785 2.75C 6.43799 2.75 2.74463 6.45074 2.74463 11C 2.74463 15.5493 6.43799 19.25 10.9785 19.25L 11 19.25L 11.0215 19.25C 15.562 19.25 19.2554 15.5493 19.2554 11C 19.2554 6.45068 15.562 2.75 11.0215 2.75L 11 2.75ZM 11 4.12506L 10.9785 4.125C 7.19531 4.125 4.11719 7.20929 4.11719 10.9999C 4.11719 14.7906 7.19531 17.8749 10.9785 17.8749L 11 17.8749L 11.0215 17.875C 14.8047 17.875 17.8828 14.7907 17.8828 11.0001C 17.8828 7.20941 14.8047 4.12506 11.0215 4.12506L 11 4.12506ZM 10.6353 8.25L 13.0371 8.25C 13.416 8.25 13.7231 7.9425 13.7231 7.5625C 13.7231 7.1825 13.416 6.875 13.0371 6.875L 11.6646 6.875L 11.6646 6.1875C 11.6646 5.8075 11.3579 5.5 10.9785 5.5C 10.5991 5.5 10.2925 5.8075 10.2925 6.1875L 10.2925 6.90979C 9.13135 7.07831 8.23389 8.07227 8.23389 9.28125C 8.23389 10.6079 9.31152 11.6875 10.6353 11.6875L 11.3218 11.6875C 11.8887 11.6875 12.3511 12.1501 12.3511 12.7188C 12.3511 13.2874 11.8887 13.75 11.3218 13.75L 8.91992 13.75C 8.54102 13.75 8.23389 14.0575 8.23389 14.4375C 8.23389 14.8175 8.54102 15.125 8.91992 15.125L 9.60645 15.125L 9.60645 15.8126C 9.60645 16.1926 9.91309 16.5001 10.2925 16.5001C 10.6719 16.5001 10.9785 16.1926 10.9785 15.8126L 10.9785 15.125L 11.3218 15.125C 12.6455 15.125 13.7231 14.0454 13.7231 12.7188C 13.7231 11.3922 12.6455 10.3126 11.3218 10.3126L 10.6353 10.3126C 10.0684 10.3126 9.60645 9.84998 9.60645 9.28131C 9.60596 8.71259 10.0684 8.25 10.6353 8.25Z"
          fill="white"/>
  </g>
</svg>
