<svg width="25" height="23" viewBox="0 0 25 23" version="1.1" xmlns="http://www.w3.org/2000/svg" xmlns:xlink="http://www.w3.org/1999/xlink">
<g id="Canvas" fill="none">
<g id="add-new-user">
<g id="Group">
<g id="Group_2">
<g id="Group_3">
<path id="Vector" d="M 10.1812 1.70736C 9.05473 0.606307 7.55708 -1.17517e-09 5.96398 -1.17517e-09C 4.37096 -1.17517e-09 2.87323 0.606307 1.74687 1.70736C 0.620387 2.80842 -3.75119e-07 4.27222 -3.75119e-07 5.82941C -3.75119e-07 7.38647 0.620387 8.85032 1.74687 9.95133C 2.87331 11.0524 4.37096 11.6588 5.96398 11.6588C 7.55704 11.6588 9.05477 11.0524 10.1812 9.95133C 12.5066 7.67848 12.5066 3.98026 10.1812 1.70736ZM 9.23422 9.02576C 8.36075 9.87963 7.19928 10.3498 5.96398 10.3498C 4.72864 10.3498 3.56733 9.87963 2.69386 9.02576C 1.82031 8.172 1.33927 7.03686 1.33927 5.82944C 1.33927 4.62203 1.82031 3.48678 2.69386 2.63302C 3.56733 1.77926 4.72872 1.30904 5.96398 1.30904C 7.19932 1.30904 8.36075 1.77922 9.23422 2.63302C 11.0374 4.39541 11.0374 7.26329 9.23422 9.02576Z" transform="translate(12.186 0)" fill="white"/>
<path id="Vector_2" d="M 4.58394 1.91296L 3.29636 1.91296L 3.29636 0.654481C 3.29636 0.293007 2.99655 9.63638e-08 2.62677 9.63638e-08C 2.25698 9.63638e-08 1.95717 0.293007 1.95717 0.654481L 1.95717 1.91296L 0.669595 1.91296C 0.299813 1.91296 3.17409e-07 2.206 3.17409e-07 2.56744C 3.17409e-07 2.92899 0.299813 3.22192 0.669595 3.22192L 1.95717 3.22192L 1.95717 4.48047C 1.95717 4.84202 2.25698 5.13495 2.62677 5.13495C 2.99655 5.13495 3.29636 4.84202 3.29636 4.48047L 3.29636 3.22192L 4.58394 3.22192C 4.95372 3.22192 5.25353 2.92899 5.25353 2.56744C 5.25353 2.206 4.95376 1.91296 4.58394 1.91296Z" transform="translate(15.4448 3.23639)" fill="white"/>
<path id="Vector_3" d="M 14.2384 10.5404C 13.3244 9.91044 12.2386 9.44557 11.0571 9.16666C 12.153 8.23892 12.8641 6.75483 12.8641 5.08543C 12.8641 2.28132 10.8579 1.83326e-07 8.39195 1.83326e-07C 5.92612 1.83326e-07 3.9199 2.28129 3.9199 5.08543C 3.9199 6.75487 4.63102 8.23896 5.72685 9.16677C 4.54541 9.44553 3.4597 9.91044 2.54561 10.5404C 0.904047 11.6718 0 13.1982 0 14.8387C 0 15.2001 0.299812 15.4932 0.669594 15.4932L 16.1143 15.4932C 16.4842 15.4932 16.7839 15.2001 16.7839 14.8387C 16.784 13.1982 15.8799 11.6718 14.2384 10.5404ZM 12.8641 14.1842L 12.8641 13.0153C 12.8641 12.6539 12.5643 12.3608 12.1945 12.3608C 11.8247 12.3608 11.5249 12.6539 11.5249 13.0153L 11.5249 14.1842L 5.25913 14.1842L 5.25913 13.0153C 5.25913 12.6539 4.95931 12.3608 4.58953 12.3608C 4.21975 12.3608 3.91994 12.6539 3.91994 13.0153L 3.91994 14.1842L 1.40924 14.1842C 1.61603 13.2245 2.27554 12.3283 3.31732 11.6103C 4.66403 10.6822 6.4663 10.171 8.39207 10.171C 10.3178 10.171 12.1201 10.6821 13.4667 11.6103C 14.5085 12.3283 15.168 13.2245 15.3747 14.1842L 12.8641 14.1842ZM 5.25913 5.08547C 5.25913 3.00312 6.66454 1.309 8.39199 1.309C 10.1195 1.309 11.5249 3.00319 11.5249 5.08547C 11.5249 7.16794 10.1195 8.86206 8.39207 8.86206C 6.66462 8.86206 5.25913 7.16787 5.25913 5.08547Z" transform="translate(0 7.06244)" fill="white"/>
</g>
</g>
</g>
</g>
</g>
</svg>

