<svg width="31" height="22" viewBox="0 0 31 22" version="1.1" xmlns="http://www.w3.org/2000/svg" xmlns:xlink="http://www.w3.org/1999/xlink">
<g id="Canvas" fill="none">
<g id="Group">
<g id="add-new-user">
<g id="Group_2">
<g id="Group_3">
<g id="Group_4">
<path id="Vector" d="M 14.2384 10.5404C 13.3244 9.91044 12.2386 9.44557 11.0571 9.16666C 12.153 8.23892 12.8641 6.75483 12.8641 5.08543C 12.8641 2.28132 10.8579 1.83326e-07 8.39195 1.83326e-07C 5.92612 1.83326e-07 3.9199 2.28129 3.9199 5.08543C 3.9199 6.75487 4.63102 8.23896 5.72685 9.16677C 4.54541 9.44553 3.4597 9.91044 2.54561 10.5404C 0.904047 11.6718 0 13.1982 0 14.8387C 0 15.2001 0.299812 15.4932 0.669594 15.4932L 16.1143 15.4932C 16.4842 15.4932 16.7839 15.2001 16.7839 14.8387C 16.784 13.1982 15.8799 11.6718 14.2384 10.5404ZM 12.8641 14.1842L 12.8641 13.0153C 12.8641 12.6539 12.5643 12.3608 12.1945 12.3608C 11.8247 12.3608 11.5249 12.6539 11.5249 13.0153L 11.5249 14.1842L 5.25913 14.1842L 5.25913 13.0153C 5.25913 12.6539 4.95931 12.3608 4.58953 12.3608C 4.21975 12.3608 3.91994 12.6539 3.91994 13.0153L 3.91994 14.1842L 1.40924 14.1842C 1.61603 13.2245 2.27554 12.3283 3.31732 11.6103C 4.66403 10.6822 6.4663 10.171 8.39207 10.171C 10.3178 10.171 12.1201 10.6821 13.4667 11.6103C 14.5085 12.3283 15.168 13.2245 15.3747 14.1842L 12.8641 14.1842ZM 5.25913 5.08547C 5.25913 3.00312 6.66454 1.309 8.39199 1.309C 10.1195 1.309 11.5249 3.00319 11.5249 5.08547C 11.5249 7.16794 10.1195 8.86206 8.39207 8.86206C 6.66462 8.86206 5.25913 7.16787 5.25913 5.08547Z" transform="translate(6 6.06244)" fill="white"/>
</g>
</g>
</g>
</g>
<path id="Ellipse (Stroke)" fill-rule="evenodd" clip-rule="evenodd" d="M 13.75 1.5C 6.96603 1.5 1.5 6.85352 1.5 13.4167C 1.5 14.4467 1.63417 15.4452 1.88608 16.3971C 1.99206 16.7975 1.75336 17.208 1.35293 17.314C 0.952504 17.42 0.541982 17.1813 0.436005 16.7808C 0.151283 15.705 0 14.5776 0 13.4167C 0 5.9886 6.17457 0 13.75 0C 21.3254 0 27.5 5.9886 27.5 13.4167C 27.5 14.4488 27.3804 15.4546 27.1537 16.4212C 27.0592 16.8245 26.6556 17.0748 26.2523 16.9802C 25.849 16.8856 25.5988 16.482 25.6933 16.0788C 25.8939 15.2235 26 14.3326 26 13.4167C 26 6.85352 20.534 1.5 13.75 1.5Z" transform="translate(0.25 0.25)" fill="white"/>
<path id="Vector (Stroke)" fill-rule="evenodd" clip-rule="evenodd" d="M 0.21967 0.21967C 0.512563 -0.0732233 0.987437 -0.0732233 1.28033 0.21967L 3.25 2.18934L 5.21967 0.21967C 5.51256 -0.0732233 5.98744 -0.0732233 6.28033 0.21967C 6.57322 0.512563 6.57322 0.987437 6.28033 1.28033L 3.78033 3.78033C 3.48744 4.07322 3.01256 4.07322 2.71967 3.78033L 0.21967 1.28033C -0.0732233 0.987437 -0.0732233 0.512563 0.21967 0.21967Z" transform="matrix(0.983585 0.180445 -0.180445 0.983585 23.9541 13.7789)" fill="white"/>
</g>
</g>
</svg>
