<svg width="23" height="26" viewBox="0 0 23 26" fill="none" xmlns="http://www.w3.org/2000/svg">
<path d="M2.42114 0.633862L1.7888 -3.28327e-07L1.21057 0.57962L0.632341 -3.28327e-07L-3.27539e-07 0.633862L0.57823 1.21348L-3.27539e-07 1.7931L0.632341 2.42697L1.21057 1.84735L1.7888 2.42697L2.42114 1.7931L1.84291 1.21348L2.42114 0.633862Z" transform="translate(9.96924 17.1658)" fill="#0092E8"/>
<path d="M2.42114 0.633862L1.7888 -3.28327e-07L1.21057 0.57962L0.632341 -3.28327e-07L-3.27539e-07 0.633862L0.578229 1.21348L-3.27539e-07 1.7931L0.632341 2.42697L1.21057 1.84735L1.7888 2.42697L2.42114 1.7931L1.84291 1.21348L2.42114 0.633862Z" transform="translate(13.9941 17.1658)" fill="#0092E8"/>
<path d="M2.42114 0.633862L1.7888 -3.28327e-07L1.21057 0.57962L0.632341 -3.28327e-07L-3.27539e-07 0.633862L0.578229 1.21348L-3.27539e-07 1.7931L0.632341 2.42697L1.21057 1.84735L1.7888 2.42697L2.42114 1.7931L1.84291 1.21348L2.42114 0.633862Z" transform="translate(18.019 17.1658)" fill="#0092E8"/>
<path d="M2.42114 0.633862L1.7888 -3.28327e-07L1.21057 0.57962L0.632341 -3.28327e-07L9.89441e-08 0.633862L0.57823 1.21348L9.89441e-08 1.7931L0.632341 2.42697L1.21057 1.84735L1.7888 2.42697L2.42114 1.7931L1.84291 1.21348L2.42114 0.633862Z" transform="translate(1.91992 17.1658)" fill="#0092E8"/>
<path d="M2.42114 0.633862L1.7888 -3.28327e-07L1.21057 0.57962L0.632341 -3.28327e-07L-3.27539e-07 0.633862L0.57823 1.21348L-3.27539e-07 1.7931L0.632341 2.42697L1.21057 1.84735L1.7888 2.42697L2.42114 1.7931L1.84291 1.21348L2.42114 0.633862Z" transform="translate(5.94434 17.1658)" fill="#0092E8"/>
<path d="M21.9128 15.2414H19.6768V11.2069C19.6768 10.9593 19.4766 10.7586 19.2296 10.7586H7.6024V6.72414C7.6024 4.74354 9.20416 3.13793 11.18 3.13793C13.1558 3.13793 14.7576 4.74354 14.7576 6.72414V7.84483C14.7576 8.71134 15.4584 9.41379 16.3228 9.41379C17.1872 9.41379 17.888 8.71134 17.888 7.84483V6.72414C17.888 3.01051 14.8847 0 11.18 0C7.47528 0 4.472 3.01051 4.472 6.72414V10.7586H3.1304C2.88343 10.7586 2.6832 10.9593 2.6832 11.2069V15.2414H0.4472C0.200234 15.2414 0 15.4421 0 15.6897V21.069C0 21.3165 0.200234 21.5172 0.4472 21.5172H2.6832V25.5517C2.6832 25.7993 2.88343 26 3.1304 26H19.2296C19.4766 26 19.6768 25.7993 19.6768 25.5517V21.5172H21.9128C22.1598 21.5172 22.36 21.3165 22.36 21.069V15.6897C22.36 15.4421 22.1598 15.2414 21.9128 15.2414ZM5.3664 6.72414C5.3664 3.50563 7.96922 0.896552 11.18 0.896552C14.3908 0.896552 16.9936 3.50563 16.9936 6.72414V7.84483C16.9936 8.21617 16.6933 8.51724 16.3228 8.51724C15.9524 8.51724 15.652 8.21617 15.652 7.84483V6.72414C15.652 4.24837 13.6498 2.24138 11.18 2.24138C8.71017 2.24138 6.708 4.24837 6.708 6.72414V10.7586H5.3664V6.72414ZM3.5776 11.6552H18.7824V15.2414H16.5464V14.3448C16.5465 14.1426 16.4115 13.9654 16.2168 13.9122L11.2976 12.5674C11.2206 12.5464 11.1394 12.5464 11.0624 12.5674L6.14319 13.9122C5.94854 13.9654 5.81354 14.1426 5.8136 14.3448V15.2414H3.5776V11.6552ZM15.652 14.6873V15.2414H6.708V14.6873L11.18 13.4644L15.652 14.6873ZM18.7824 25.1034H3.5776V21.5172H7.64712C8.20573 22.2154 8.87446 22.8173 9.62687 23.2991L10.9403 24.137C11.0868 24.2304 11.2741 24.2304 11.4206 24.137L12.734 23.2991C13.4861 22.8172 14.1546 22.2153 14.7129 21.5172H18.7824V25.1034ZM8.84606 21.5172H13.5139C13.133 21.9048 12.7102 22.2487 12.2533 22.5424L11.18 23.227L10.1067 22.5424C9.64985 22.2487 9.22702 21.9048 8.84606 21.5172ZM21.4656 20.6207H0.8944V16.1379H21.4656V20.6207Z" fill="#0092E8"/>
<path d="M0.8944 0H0V0.896552H0.8944V0Z" transform="translate(4.47217 23.3103)" fill="#0092E8"/>
<path d="M0.8944 0H0V0.896552H0.8944V0Z" transform="translate(16.9937 23.3103)" fill="#0092E8"/>
<path d="M0.8944 0H0V0.896552H0.8944V0Z" transform="translate(4.47217 12.5518)" fill="#0092E8"/>
<path d="M0.8944 0H0V0.896552H0.8944V0Z" transform="translate(16.9937 12.5518)" fill="#0092E8"/>
</svg>
