<svg width="23" height="28" viewBox="0 0 23 28" fill="none" xmlns="http://www.w3.org/2000/svg">
<path d="M19.4864 20.3116L15.3097 18.0063C14.8979 17.7774 14.6428 17.3398 14.6445 16.8653V15.2822C15.4074 14.2546 15.9651 13.0871 16.2869 11.8447C16.7271 11.4934 16.9839 10.958 16.9838 10.3915V8.49316C16.9816 8.04049 16.8151 7.60442 16.516 7.26721V4.72602C16.6075 3.61292 16.2576 2.5086 15.543 1.65585C14.5887 0.557301 13.0385 -7.72298e-07 10.9358 -7.72298e-07C10.9015 -7.72298e-07 10.8675 0.00047506 10.8334 0.000870477C10.7994 0.00047506 10.7655 -7.72298e-07 10.731 -7.72298e-07C8.62813 -7.72298e-07 7.078 0.557301 6.12379 1.65585C5.4092 2.5086 5.05928 3.61292 5.15085 4.72602V7.26721C4.85169 7.60442 4.6853 8.04049 4.68303 8.49316V10.3915C4.68287 10.958 4.93958 11.4934 5.37991 11.8447C5.70155 13.0871 6.2594 14.2546 7.02223 15.2822V16.8653C7.02388 17.3398 6.76873 17.7774 6.357 18.0063L2.18034 20.3116C0.83483 21.0568 -0.00117163 22.4834 3.41732e-06 24.0327V25.5667C-7.49191e-05 25.6816 0.0451207 25.7919 0.12565 25.8732C0.206102 25.9544 0.315381 26 0.429204 26H10.8011H10.8656H21.2375C21.3513 26 21.4606 25.9544 21.541 25.8732C21.6215 25.7919 21.6667 25.6816 21.6667 25.5667V24.0327C21.6679 22.4834 20.8319 21.0568 19.4864 20.3116ZM20.8083 25.1333L10.8656 25.1334H10.8011H0.858409V25.1333V24.0326C0.857469 22.8001 1.52231 21.665 2.59262 21.0718L6.76897 18.7667C7.45606 18.386 7.8826 17.6568 7.88072 16.8654V15.132C7.8808 15.0306 7.84555 14.9324 7.78123 14.8544C7.01988 13.8586 6.47395 12.7126 6.1787 11.4906C6.15371 11.3808 6.08736 11.2852 5.99383 11.224C5.7126 11.0423 5.54215 10.7286 5.5416 10.3916V8.49316C5.54309 8.21447 5.66215 7.94954 5.86896 7.76488C5.95842 7.68287 6.00942 7.56654 6.00942 7.44459V4.70151C6.00934 4.68316 6.00816 4.66473 6.00581 4.64646C5.9393 3.76666 6.21607 2.8954 6.77688 2.21868C7.56197 1.32156 8.89251 0.866595 10.7311 0.866595C10.7546 0.866595 10.7779 0.866911 10.8013 0.867148V0.867624C10.812 0.867465 10.8228 0.867466 10.8335 0.867387C10.8442 0.867466 10.855 0.867465 10.8657 0.867624V0.867148C10.8891 0.866911 10.9123 0.866595 10.9359 0.866595C12.7745 0.866595 14.1049 1.32156 14.8901 2.21868C15.4509 2.8954 15.7276 3.76658 15.6612 4.64646C15.6588 4.66473 15.6576 4.68308 15.6576 4.70151V7.44459C15.6576 7.56654 15.7086 7.68287 15.798 7.76488C16.0048 7.94954 16.1239 8.21447 16.1254 8.49316V10.3915C16.1248 10.7285 15.9543 11.0422 15.6732 11.2239C15.5796 11.2851 15.5133 11.3807 15.4884 11.4905C15.193 12.7126 14.6471 13.8585 13.8858 14.8543C13.8215 14.9322 13.7863 15.0305 13.7863 15.132V16.8653C13.7845 17.6567 14.211 18.3859 14.8981 18.7666L19.0744 21.0717C20.1448 21.6649 20.8095 22.8 20.8086 24.0326V25.1333H20.8083Z" transform="translate(1 1)" fill="#0092E8"/>
<path d="M19.4864 20.3116L15.3097 18.0063C14.8979 17.7774 14.6428 17.3398 14.6445 16.8653V15.2822C15.4074 14.2546 15.9651 13.0871 16.2869 11.8447C16.7271 11.4934 16.9839 10.958 16.9838 10.3915V8.49316C16.9816 8.04049 16.8151 7.60442 16.516 7.26721V4.72602C16.6075 3.61292 16.2576 2.5086 15.543 1.65585C14.5887 0.557301 13.0385 -7.72298e-07 10.9358 -7.72298e-07C10.9015 -7.72298e-07 10.8675 0.00047506 10.8334 0.000870477C10.7994 0.00047506 10.7655 -7.72298e-07 10.731 -7.72298e-07C8.62813 -7.72298e-07 7.078 0.557301 6.12379 1.65585C5.4092 2.5086 5.05928 3.61292 5.15085 4.72602V7.26721C4.85169 7.60442 4.6853 8.04049 4.68303 8.49316V10.3915C4.68287 10.958 4.93958 11.4934 5.37991 11.8447C5.70155 13.0871 6.25939 14.2546 7.02223 15.2822V16.8653C7.02388 17.3398 6.76873 17.7774 6.357 18.0063L2.18034 20.3116C0.83483 21.0568 -0.00117163 22.4834 3.41732e-06 24.0327V25.5667C-7.49191e-05 25.6816 0.0451207 25.7919 0.12565 25.8732C0.206102 25.9544 0.315381 26 0.429204 26H10.8011H10.8656H21.2375C21.3513 26 21.4606 25.9544 21.541 25.8732C21.6215 25.7919 21.6667 25.6816 21.6667 25.5667V24.0327C21.6679 22.4834 20.8319 21.0568 19.4864 20.3116ZM20.8083 25.1333L10.8656 25.1334H10.8011H0.858409V25.1333V24.0326C0.857469 22.8001 1.52231 21.665 2.59262 21.0718L6.76897 18.7667C7.45606 18.386 7.8826 17.6568 7.88072 16.8654V15.132C7.8808 15.0306 7.84555 14.9324 7.78123 14.8544C7.01988 13.8586 6.47395 12.7126 6.1787 11.4906C6.15371 11.3808 6.08736 11.2852 5.99383 11.224C5.7126 11.0423 5.54215 10.7286 5.5416 10.3916V8.49316C5.54309 8.21447 5.66215 7.94954 5.86896 7.76488C5.95842 7.68287 6.00942 7.56654 6.00942 7.44459V4.70151C6.00934 4.68316 6.00816 4.66473 6.00581 4.64646C5.9393 3.76666 6.21607 2.8954 6.77688 2.21868C7.56197 1.32156 8.89251 0.866595 10.7311 0.866595C10.7546 0.866595 10.7779 0.866911 10.8013 0.867148V0.867623C10.812 0.867465 10.8228 0.867466 10.8335 0.867387C10.8442 0.867466 10.855 0.867465 10.8657 0.867623V0.867148C10.8891 0.866911 10.9123 0.866595 10.9359 0.866595C12.7745 0.866595 14.1049 1.32156 14.8901 2.21868C15.4509 2.8954 15.7276 3.76658 15.6612 4.64646C15.6588 4.66473 15.6576 4.68308 15.6576 4.70151V7.44459C15.6576 7.56654 15.7086 7.68287 15.798 7.76488C16.0048 7.94954 16.1239 8.21447 16.1254 8.49316V10.3915C16.1248 10.7285 15.9543 11.0422 15.6732 11.2239C15.5796 11.2851 15.5133 11.3807 15.4884 11.4905C15.193 12.7126 14.6471 13.8585 13.8858 14.8543C13.8215 14.9322 13.7863 15.0305 13.7863 15.132V16.8653C13.7845 17.6567 14.211 18.3859 14.8981 18.7666L19.0744 21.0717C20.1448 21.6649 20.8095 22.8 20.8086 24.0326V25.1333H20.8083Z" transform="translate(1 1)" stroke="#0092E8" stroke-width="0.25"/>
</svg>
