<svg width="173" height="32" viewBox="0 0 173 32" fill="none" xmlns="http://www.w3.org/2000/svg">
<rect x="0.5" y="0.5" width="172" height="25" rx="2.5" transform="translate(0 3)" fill="#F5F5F5" stroke="#DEDEDE"/>
<path d="M9 0.671233C9 0.835616 8.94277 1.0274 8.79968 1.16438L4.99364 4.80822C4.85056 4.94521 4.70747 5 4.50715 5C4.30684 5 4.16375 4.94521 4.02067 4.80822L0.214626 1.16438C-0.0715421 0.890411 -0.0715421 0.479452 0.214626 0.205479C0.500795 -0.0684932 0.901431 -0.0684932 1.1876 0.205479L4.50715 3.38356L7.82671 0.205479C8.11288 -0.0684932 8.51351 -0.0684932 8.79968 0.205479C8.94277 0.342466 9 0.506849 9 0.671233Z" transform="translate(157 14)" fill="#010002" fill-opacity="0.3"/>
<path d="M9.95818 13.4339C11.4467 10.9176 13.328 7.38 13.328 5.56163C13.328 2.49429 10.8808 0 7.8714 0C4.86196 0 2.41476 2.49429 2.41476 5.56163C2.41476 7.38 4.29611 10.9176 5.78461 13.4339C4.01859 13.5698 -5.49945e-08 14.0584 -5.49945e-08 15.6784C-5.49945e-08 17.2727 4.07986 18 7.875 18C11.6665 18 15.75 17.2727 15.75 15.6784C15.7464 14.0584 11.7242 13.5698 9.95818 13.4339ZM3.16802 5.56163C3.16802 2.91673 5.28003 0.764082 7.8714 0.764082C10.4664 0.764082 12.5784 2.91673 12.5784 5.56163C12.5784 7.87224 8.96705 13.669 7.8714 15.3735C6.77574 13.669 3.16802 7.87224 3.16802 5.56163ZM7.8714 17.2322C3.26173 17.2322 0.749657 16.2037 0.749657 15.6747C0.749657 15.2669 2.40755 14.389 6.22792 14.1649C6.94514 15.3441 7.48936 16.178 7.56144 16.2771C7.65875 16.4094 7.94348 16.5673 8.18495 16.2771C8.26064 16.1853 8.80126 15.3441 9.51848 14.1649C13.3388 14.389 14.9967 15.2633 14.9967 15.6747C14.9931 16.2073 12.4811 17.2322 7.8714 17.2322Z" transform="translate(27 7) scale(-1 1)" fill="#55BFFD" stroke="#55BFFD" stroke-width="0.5"/>
<path d="M4.75023 2.42082C4.75023 1.08367 3.68701 0 2.37511 0C1.06322 0 2.19978e-07 1.08367 2.19978e-07 2.42082C2.19978e-07 3.75796 1.06322 4.84163 2.37511 4.84163C3.68701 4.84163 4.75023 3.75796 4.75023 2.42082ZM0.749656 2.42082C0.749656 1.50612 1.47769 0.764082 2.37511 0.764082C3.27254 0.764082 4.00057 1.50612 4.00057 2.42082C4.00057 3.33551 3.27254 4.07755 2.37511 4.07755C1.47769 4.07755 0.749656 3.33551 0.749656 2.42082Z" transform="translate(21.5037 10.1408) scale(-1 1)" fill="#55BFFD" stroke="#55BFFD" stroke-width="0.5"/>
<path d="M4.08789 9.56348C2.96224 9.23991 2.14193 8.84342 1.62695 8.37402C1.11654 7.90007 0.861328 7.31673 0.861328 6.62402C0.861328 5.84017 1.1735 5.19303 1.79785 4.68262C2.42676 4.16764 3.24251 3.91016 4.24512 3.91016C4.92871 3.91016 5.53711 4.04232 6.07031 4.30664C6.60807 4.57096 7.02279 4.93555 7.31445 5.40039C7.61068 5.86523 7.75879 6.37337 7.75879 6.9248H6.43945C6.43945 6.32324 6.24805 5.85156 5.86523 5.50977C5.48242 5.16341 4.94238 4.99023 4.24512 4.99023C3.59798 4.99023 3.09212 5.13379 2.72754 5.4209C2.36751 5.70345 2.1875 6.09766 2.1875 6.60352C2.1875 7.00911 2.3584 7.35319 2.7002 7.63574C3.04655 7.91374 3.63216 8.16895 4.45703 8.40137C5.28646 8.63379 5.93359 8.89128 6.39844 9.17383C6.86784 9.45182 7.21419 9.77767 7.4375 10.1514C7.66536 10.5251 7.7793 10.9648 7.7793 11.4707C7.7793 12.2773 7.46484 12.9245 6.83594 13.4121C6.20703 13.8952 5.36621 14.1367 4.31348 14.1367C3.62988 14.1367 2.99186 14.0068 2.39941 13.7471C1.80697 13.4827 1.34896 13.1227 1.02539 12.667C0.70638 12.2113 0.546875 11.694 0.546875 11.1152H1.86621C1.86621 11.7168 2.08724 12.193 2.5293 12.5439C2.97591 12.8903 3.57064 13.0635 4.31348 13.0635C5.00618 13.0635 5.53711 12.9222 5.90625 12.6396C6.27539 12.3571 6.45996 11.972 6.45996 11.4844C6.45996 10.9967 6.28906 10.6208 5.94727 10.3564C5.60547 10.0876 4.98568 9.82324 4.08789 9.56348ZM12.3389 14.1367C11.3363 14.1367 10.5205 13.8086 9.8916 13.1523C9.2627 12.4915 8.94824 11.6097 8.94824 10.5068V10.2744C8.94824 9.54069 9.08724 8.88672 9.36523 8.3125C9.64779 7.73372 10.0397 7.28255 10.541 6.95898C11.0469 6.63086 11.5938 6.4668 12.1816 6.4668C13.1432 6.4668 13.8906 6.78353 14.4238 7.41699C14.957 8.05046 15.2236 8.95736 15.2236 10.1377V10.6641H10.2129C10.2311 11.3932 10.443 11.9834 10.8486 12.4346C11.2588 12.8812 11.7783 13.1045 12.4072 13.1045C12.8538 13.1045 13.2321 13.0133 13.542 12.8311C13.8519 12.6488 14.123 12.4072 14.3555 12.1064L15.1279 12.708C14.5081 13.6605 13.5785 14.1367 12.3389 14.1367ZM12.1816 7.50586C11.6712 7.50586 11.2428 7.69271 10.8965 8.06641C10.5501 8.43555 10.3359 8.95508 10.2539 9.625H13.959V9.5293C13.9225 8.88672 13.7493 8.38997 13.4395 8.03906C13.1296 7.68359 12.7103 7.50586 12.1816 7.50586ZM18.0674 14H16.8027V3.5H18.0674V14ZM23.167 14.1367C22.1644 14.1367 21.3486 13.8086 20.7197 13.1523C20.0908 12.4915 19.7764 11.6097 19.7764 10.5068V10.2744C19.7764 9.54069 19.9154 8.88672 20.1934 8.3125C20.4759 7.73372 20.8678 7.28255 21.3691 6.95898C21.875 6.63086 22.4219 6.4668 23.0098 6.4668C23.9714 6.4668 24.7188 6.78353 25.252 7.41699C25.7852 8.05046 26.0518 8.95736 26.0518 10.1377V10.6641H21.041C21.0592 11.3932 21.2712 11.9834 21.6768 12.4346C22.0869 12.8812 22.6064 13.1045 23.2354 13.1045C23.682 13.1045 24.0602 13.0133 24.3701 12.8311C24.68 12.6488 24.9512 12.4072 25.1836 12.1064L25.9561 12.708C25.3363 13.6605 24.4066 14.1367 23.167 14.1367ZM23.0098 7.50586C22.4993 7.50586 22.071 7.69271 21.7246 8.06641C21.3783 8.43555 21.1641 8.95508 21.082 9.625H24.7871V9.5293C24.7507 8.88672 24.5775 8.38997 24.2676 8.03906C23.9577 7.68359 23.5384 7.50586 23.0098 7.50586ZM30.4883 13.1045C30.9395 13.1045 31.3337 12.9678 31.6709 12.6943C32.0081 12.4209 32.195 12.0791 32.2314 11.6689H33.4277C33.4049 12.0928 33.2591 12.4961 32.9902 12.8789C32.7214 13.2617 32.3613 13.5671 31.9102 13.7949C31.4635 14.0228 30.9896 14.1367 30.4883 14.1367C29.4811 14.1367 28.679 13.8018 28.082 13.1318C27.4896 12.4574 27.1934 11.5368 27.1934 10.3701V10.1582C27.1934 9.43815 27.3255 8.79785 27.5898 8.2373C27.8542 7.67676 28.2324 7.24154 28.7246 6.93164C29.2214 6.62174 29.807 6.4668 30.4814 6.4668C31.3109 6.4668 31.999 6.71517 32.5459 7.21191C33.0973 7.70866 33.3913 8.35352 33.4277 9.14648H32.2314C32.195 8.66797 32.0127 8.27604 31.6846 7.9707C31.361 7.66081 30.96 7.50586 30.4814 7.50586C29.8389 7.50586 29.3398 7.73828 28.9844 8.20312C28.6335 8.66341 28.458 9.33105 28.458 10.2061V10.4453C28.458 11.2975 28.6335 11.9538 28.9844 12.4141C29.3353 12.8743 29.8366 13.1045 30.4883 13.1045ZM36.5654 4.8125V6.60352H37.9463V7.58105H36.5654V12.168C36.5654 12.4642 36.627 12.6875 36.75 12.8379C36.873 12.9837 37.0827 13.0566 37.3789 13.0566C37.5247 13.0566 37.7253 13.0293 37.9805 12.9746V14C37.6478 14.0911 37.3242 14.1367 37.0098 14.1367C36.4447 14.1367 36.0186 13.9658 35.7314 13.624C35.4443 13.2822 35.3008 12.7969 35.3008 12.168V7.58105H33.9541V6.60352H35.3008V4.8125H36.5654ZM44.4199 12.9268H49.1367V14H43.1006V4.04688H44.4199V12.9268ZM50.1006 10.2334C50.1006 9.50879 50.2419 8.8571 50.5244 8.27832C50.8115 7.69954 51.208 7.25293 51.7139 6.93848C52.2243 6.62402 52.8053 6.4668 53.457 6.4668C54.4642 6.4668 55.2777 6.81543 55.8975 7.5127C56.5218 8.20996 56.834 9.13737 56.834 10.2949V10.3838C56.834 11.1038 56.695 11.751 56.417 12.3252C56.1436 12.8949 55.7493 13.3392 55.2344 13.6582C54.724 13.9772 54.1361 14.1367 53.4707 14.1367C52.4681 14.1367 51.6546 13.7881 51.0303 13.0908C50.4105 12.3936 50.1006 11.4707 50.1006 10.3223V10.2334ZM51.3721 10.3838C51.3721 11.2041 51.5612 11.8626 51.9395 12.3594C52.3223 12.8561 52.8327 13.1045 53.4707 13.1045C54.1133 13.1045 54.6237 12.8538 55.002 12.3525C55.3802 11.8467 55.5693 11.1403 55.5693 10.2334C55.5693 9.4222 55.3757 8.76595 54.9883 8.26465C54.6055 7.75879 54.0951 7.50586 53.457 7.50586C52.8327 7.50586 52.3291 7.75423 51.9463 8.25098C51.5635 8.74772 51.3721 9.45866 51.3721 10.3838ZM61.3867 13.1045C61.8379 13.1045 62.2321 12.9678 62.5693 12.6943C62.9066 12.4209 63.0934 12.0791 63.1299 11.6689H64.3262C64.3034 12.0928 64.1576 12.4961 63.8887 12.8789C63.6198 13.2617 63.2598 13.5671 62.8086 13.7949C62.362 14.0228 61.888 14.1367 61.3867 14.1367C60.3796 14.1367 59.5775 13.8018 58.9805 13.1318C58.388 12.4574 58.0918 11.5368 58.0918 10.3701V10.1582C58.0918 9.43815 58.224 8.79785 58.4883 8.2373C58.7526 7.67676 59.1309 7.24154 59.623 6.93164C60.1198 6.62174 60.7054 6.4668 61.3799 6.4668C62.2093 6.4668 62.8975 6.71517 63.4443 7.21191C63.9958 7.70866 64.2897 8.35352 64.3262 9.14648H63.1299C63.0934 8.66797 62.9111 8.27604 62.583 7.9707C62.2594 7.66081 61.8584 7.50586 61.3799 7.50586C60.7373 7.50586 60.2383 7.73828 59.8828 8.20312C59.5319 8.66341 59.3564 9.33105 59.3564 10.2061V10.4453C59.3564 11.2975 59.5319 11.9538 59.8828 12.4141C60.2337 12.8743 60.735 13.1045 61.3867 13.1045ZM70.3145 14C70.2415 13.8542 70.1823 13.5944 70.1367 13.2207C69.5488 13.8314 68.847 14.1367 68.0312 14.1367C67.3021 14.1367 66.7028 13.9316 66.2334 13.5215C65.7686 13.1068 65.5361 12.5827 65.5361 11.9492C65.5361 11.179 65.8278 10.582 66.4111 10.1582C66.999 9.72982 67.8239 9.51562 68.8857 9.51562H70.1162V8.93457C70.1162 8.49251 69.984 8.1416 69.7197 7.88184C69.4554 7.61751 69.0658 7.48535 68.5508 7.48535C68.0996 7.48535 67.7214 7.59928 67.416 7.82715C67.1107 8.05501 66.958 8.33073 66.958 8.6543H65.6865C65.6865 8.28516 65.8164 7.92969 66.0762 7.58789C66.3405 7.24154 66.696 6.9681 67.1426 6.76758C67.5938 6.56706 68.0882 6.4668 68.626 6.4668C69.4782 6.4668 70.1458 6.68099 70.6289 7.10938C71.112 7.5332 71.3626 8.11882 71.3809 8.86621V12.2705C71.3809 12.9495 71.4674 13.4896 71.6406 13.8906V14H70.3145ZM68.2158 13.0361C68.6123 13.0361 68.9883 12.9336 69.3438 12.7285C69.6992 12.5234 69.9567 12.2568 70.1162 11.9287V10.4111H69.125C67.5755 10.4111 66.8008 10.8646 66.8008 11.7715C66.8008 12.168 66.9329 12.4779 67.1973 12.7012C67.4616 12.9245 67.8011 13.0361 68.2158 13.0361ZM75.0791 4.8125V6.60352H76.46V7.58105H75.0791V12.168C75.0791 12.4642 75.1406 12.6875 75.2637 12.8379C75.3867 12.9837 75.5964 13.0566 75.8926 13.0566C76.0384 13.0566 76.2389 13.0293 76.4941 12.9746V14C76.1615 14.0911 75.8379 14.1367 75.5234 14.1367C74.9583 14.1367 74.5322 13.9658 74.2451 13.624C73.958 13.2822 73.8145 12.7969 73.8145 12.168V7.58105H72.4678V6.60352H73.8145V4.8125H75.0791ZM79.3174 14H78.0527V6.60352H79.3174V14ZM77.9502 4.6416C77.9502 4.43652 78.0117 4.26335 78.1348 4.12207C78.2624 3.98079 78.4492 3.91016 78.6953 3.91016C78.9414 3.91016 79.1283 3.98079 79.2559 4.12207C79.3835 4.26335 79.4473 4.43652 79.4473 4.6416C79.4473 4.84668 79.3835 5.01758 79.2559 5.1543C79.1283 5.29102 78.9414 5.35938 78.6953 5.35938C78.4492 5.35938 78.2624 5.29102 78.1348 5.1543C78.0117 5.01758 77.9502 4.84668 77.9502 4.6416ZM81.0127 10.2334C81.0127 9.50879 81.154 8.8571 81.4365 8.27832C81.7236 7.69954 82.1201 7.25293 82.626 6.93848C83.1364 6.62402 83.7174 6.4668 84.3691 6.4668C85.3763 6.4668 86.1898 6.81543 86.8096 7.5127C87.4339 8.20996 87.7461 9.13737 87.7461 10.2949V10.3838C87.7461 11.1038 87.6071 11.751 87.3291 12.3252C87.0557 12.8949 86.6615 13.3392 86.1465 13.6582C85.6361 13.9772 85.0482 14.1367 84.3828 14.1367C83.3802 14.1367 82.5667 13.7881 81.9424 13.0908C81.3226 12.3936 81.0127 11.4707 81.0127 10.3223V10.2334ZM82.2842 10.3838C82.2842 11.2041 82.4733 11.8626 82.8516 12.3594C83.2344 12.8561 83.7448 13.1045 84.3828 13.1045C85.0254 13.1045 85.5358 12.8538 85.9141 12.3525C86.2923 11.8467 86.4814 11.1403 86.4814 10.2334C86.4814 9.4222 86.2878 8.76595 85.9004 8.26465C85.5176 7.75879 85.0072 7.50586 84.3691 7.50586C83.7448 7.50586 83.2412 7.75423 82.8584 8.25098C82.4756 8.74772 82.2842 9.45866 82.2842 10.3838ZM90.5283 6.60352L90.5693 7.5332C91.1344 6.82227 91.8727 6.4668 92.7842 6.4668C94.3473 6.4668 95.1357 7.34863 95.1494 9.1123V14H93.8848V9.10547C93.8802 8.57227 93.7572 8.17806 93.5156 7.92285C93.2786 7.66764 92.9072 7.54004 92.4014 7.54004C91.9912 7.54004 91.6312 7.64941 91.3213 7.86816C91.0114 8.08691 90.7699 8.37402 90.5967 8.72949V14H89.332V6.60352H90.5283Z" transform="translate(35 7)" fill="#828282"/>
</svg>
