<svg width="52" height="26" viewBox="0 0 52 26" fill="none" xmlns="http://www.w3.org/2000/svg">
<rect x="0.5" y="0.5" width="51" height="25" rx="2.5" fill="#F5F5F5" stroke="#DEDEDE"/>
<path d="M22.2026 4.53185e-08H1.79742C0.804703 4.53185e-08 0 0.796654 0 1.77944V13.7874C0 14.7702 0.804703 15.5669 1.79742 15.5669H22.2026C23.1952 15.5669 24 14.7702 24 13.7874V1.77944C24 0.796654 23.1953 4.53185e-08 22.2026 4.53185e-08Z" transform="translate(6 5.00101)" fill="#41479B"/>
<path d="M23.9751 1.48532C23.8335 0.642632 23.094 7.08101e-08 22.2026 7.08101e-08H21.7349L14.069 4.97228V4.64514e-05H9.93103V4.97232L2.26509 4.64514e-05H1.79742C0.906 4.64514e-05 0.166547 0.642632 0.0248906 1.48537L6.57698 5.73524H0V9.83179H6.57698L0.0248906 14.0816C0.166547 14.9243 0.906 15.5669 1.79742 15.5669H2.26509L9.93103 10.5946V15.5669H14.069V10.5946L21.7349 15.5669H22.2026C23.094 15.5669 23.8335 14.9243 23.9751 14.0816L17.423 9.8317H24V5.73515H17.423L23.9751 1.48532Z" transform="translate(6 5)" fill="#F5F5F5"/>
<path d="M13.2414 4.53185e-08H10.7586V6.55445H0V9.0124H10.7586V15.5668H13.2414V9.0124H24V6.55445H13.2414V4.53185e-08Z" transform="translate(6 5.00101)" fill="#FF4B55"/>
<path d="M0.729797 5.62043L9.47587 2.26592e-08H7.95581L-1.07288e-09 5.11266C0.194672 5.33759 0.444844 5.51384 0.729797 5.62043Z" transform="translate(6.43237 14.8317)" fill="#FF4B55"/>
<path d="M1.52006 2.26592e-08H-4.00543e-07L8.47106 5.44367C8.70811 5.28956 8.90592 5.08138 9.04702 4.83691L1.52006 2.26592e-08Z" transform="translate(20.7169 14.8317)" fill="#FF4B55"/>
<path d="M-1.00136e-08 0.632655L7.39359 5.38404H8.91366L0.535594 1.33123e-07C0.310641 0.165763 0.126562 0.382479 -1.00136e-08 0.632655Z" transform="translate(6.18979 5.35114)" fill="#FF4B55"/>
<path d="M1.52006 5.62605L9.49045 0.503971C9.29363 0.279783 9.04148 0.104553 8.75456 -5.09833e-08L2.28882e-08 5.62605H1.52006Z" transform="translate(20.069 5.10916)" fill="#FF4B55"/>
<path d="M9 0.671233C9 0.835616 8.94277 1.0274 8.79968 1.16438L4.99364 4.80822C4.85056 4.94521 4.70747 5 4.50715 5C4.30684 5 4.16375 4.94521 4.02067 4.80822L0.214626 1.16438C-0.0715421 0.890411 -0.0715421 0.479452 0.214626 0.205479C0.500795 -0.0684932 0.901431 -0.0684932 1.1876 0.205479L4.50715 3.38356L7.82671 0.205479C8.11288 -0.0684932 8.51351 -0.0684932 8.79968 0.205479C8.94277 0.342466 9 0.506849 9 0.671233Z" transform="translate(36 11)" fill="#010002" fill-opacity="0.3"/>
</svg>
